<?xml version='1.0' encoding='utf-8'?>
<svg version="1.1" xmlns="http://www.w3.org/2000/svg" viewBox="0 0 129 129" xmlns:xlink="http://www.w3.org/1999/xlink" enable-background="new 0 0 129 129">
  <g>
    <g>
      <path d="m88.6,94.4c0.8,0.8 1.8,1.2 2.9,1.2s2.1-0.4 2.9-1.2l27-27c0.2-0.2 0.4-0.4 0.5-0.6 0,0 0.1-0.1 0.1-0.2 0.1-0.2 0.2-0.4 0.3-0.5 0-0.1 0-0.2 0.1-0.2 0.1-0.2 0.1-0.3 0.2-0.5 0.1-0.3 0.1-0.5 0.1-0.8 0-0.3 0-0.5-0.1-0.8 0-0.2-0.1-0.4-0.2-0.5 0-0.1 0-0.2-0.1-0.2-0.1-0.2-0.2-0.4-0.3-0.6 0,0 0-0.1-0.1-0.1-0.1-0.2-0.3-0.4-0.5-0.6l-27-27c-1.6-1.6-4.2-1.6-5.8,0-1.6,1.6-1.6,4.2 0,5.8l20,20h-71.1c-2.3,0-4.1,1.8-4.1,4.1 0,2.3 1.8,4.1 4.1,4.1h71.1l-20,20c-1.6,1.4-1.6,4 0,5.6z"/>
      <path d="m10.5,122.5h54c2.3,0 4.1-1.8 4.1-4.1v-40.3c0-2.3-1.8-4.1-4.1-4.1s-4.1,1.8-4.1,4.1v36.2h-45.8v-99.7h45.8v36.2c0,2.3 1.8,4.1 4.1,4.1s4.1-1.8 4.1-4.1v-40.3c0-2.3-1.8-4.1-4.1-4.1h-54c-2.3,0-4.1,1.8-4.1,4.1v107.9c0.1,2.3 1.9,4.1 4.1,4.1z"/>
    </g>
  </g>
</svg>
