<?xml version="1.0" encoding="UTF-8" standalone="no"?> <svg id="Layer_1" data-name="Layer 1" xmlns="http://www.w3.org/2000/svg" viewBox="0 0 25 25"><title>Diamond</title><path id="Diamond" d="M12.54,23.43a.49.49,0,0,1-.23-.05.5.5,0,0,1-.23-.25L.11,7.82a.5.5,0,0,1,0-.61l0,0,4.18-5,0,0h0A.5.5,0,0,1,4.58,2H20.72a.5.5,0,0,1,.26.16l0,0,3.89,5,0,0a.5.5,0,0,1,.09.35h0a.5.5,0,0,1-.11.24l-12,15.42A.5.5,0,0,1,12.54,23.43ZM8.71,8l3.83,13.13L16.36,8ZM17.4,8,13.75,20.55,23.48,8ZM1.53,8l9.8,12.55L7.67,8ZM18,7h5.48L20.62,3.33ZM9.17,7H15.9L12.54,3.25ZM1.57,7H7.11L4.64,3.33ZM13.66,3,17,6.7,19.63,3Zm-8,0L8.1,6.69,11.42,3Z" fill="#0e1d25"/></svg>