<?xml version="1.0" encoding="UTF-8"?>
<svg viewBox="0 0 271.25 141.25" xmlns="http://www.w3.org/2000/svg">
 <g transform="matrix(1.25,0,0,-1.25,0,141.25)">
  <g transform="scale(.24)">
   <path d="m1.83203,363.086c4.03906,39.605 7.09375,75.613 42.77737,96.996 18.1133,6.547 33.8242,10.039 51.9414,10.586 50.5192-4.148 91.8792-52.375 102.1332-99.945-1.309-39.825-9.493-97.11 7.64-135.297 1.637,0 11.348,10.91 12.114,11.676-3.602.543-3.602.543-4.473,1.089v2.512c11.019,9.055 21.496,15.383 33.605,19.856 .219.437.438.875.547,1.308-3.273,1.746-5.129,1.965-5.129,5.457 8.95,7.094 21.606.438 30.336-.437-.98,3.929-4.582,3.711-5.019,8.73 6.218,1.199 9.273-3.601 18.55-.875 19.532,8.949 34.047,17.024 54.887,22.262 1.09,4.687 18.113,4.797 22.153,5.016 .433.875.761,1.746 1.089,2.621 17.243,1.855 51.067,3.382 64.055-8.293 0,5.019-5.676,5.89-2.836,10.582 8.184,0 13.203-8.184 21.387-8.184 5.129-2.289 8.074-6.656 11.894-10.473 9.383.872 13.094,5.782 18.223,12 4.91-1.636 6.109-3.488.871-7.199 0-8.074 16.914-10.691 22.699-12.656-.437,1.965-1.964,3.492-1.964,5.453 1.855,1.422 1.855,1.422 3.054,1.637 2.399-2.18 12.004-12.11 15.711-12.981 .219,2.071 1.313,3.598 1.75,4.254h1.852c1.746-2.621 17.789-10.691 21.062-11.457 .762,4.035 2.508,6.328 4.035,8.946 .766,0 1.528-.11 2.184-.215 3.055-6.985 13.422-13.422 19.641-15.496 10.914.765 6.222,7.64 10.914,13.312 3.492-2.293 2.507-5.019 3.164-9.492 .218-.109.437-.219.547-.328 9.382,11.238-12.114,37.316-17.68,43.972 0,15.055 28.152-12.765 31.754-17.242 6.113-8.945 6.113-8.945 8.402-12.984 1.965,9.496 17.352,26.625 25.317,22.262v-2.184c-2.731-2.727-7.094-2.945-7.965-10.258 1.965-1.308 3.054-2.617 4.472-4.363 9.602,15.383 17.571,10.258 31.645,15.168 9.93-1.637.656-7.203-.328-11.457 1.527-.11 2.949-.219 4.367-.438 .219,2.946.219,2.946.652,3.493 8.512-.985 15.606-2.293 22.918-5.239-.656,3.711-6.332,6.11-9.929,7.965 .214.766.433,1.527.543,2.184 6.546,0 16.152-2.946 21.386-5.567 6.547-4.363 6.547-4.363 7.641-4.582 .437.871.871,1.746 1.308,2.512 4.911,0 9.497-5.676 12.547-9.277 1.422-.328 6.875,0 10.153-.219 .652,1.531.652,1.531 1.527,2.183 2.836-1.855 3.816-4.691 5.453-7.746 5.457-.546 9.606-6.218 12.332-6.218 4.91,8.617 5.785,15.929 15.606,17.894 4.8-6.004-12.442-9.383-10.477-19.64h1.09c.437.546.766.98 1.094,1.418 7.855-.657 11.457-6.438 16.695-11.458 0,3.055-3.602,7.422 1.418,7.422 9.711-11.023 17.785-14.949 22.805-30.007 1.636-1.418 1.636-1.418 7.855-4.364 3.383,14.403 13.86,23.024 27.61,17.129-8.184-2.289-24.227-6.328-22.59-19.855 9.824-3.602 9.824-3.602 10.367-4.149-.652-4.254-2.836-3.492-8.184-3.711 1.637-2.398 11.348-7.636 14.078-9.816v-1.746c-.656-.438-1.855-.766-1.855-2.621 6.766-5.129 17.894-13.418 9.492-23.457 .766-3.055 11.457-13.203 14.188-19.313 2.726-20.078 11.238-23.351 29.898-29.242 3.707-.328 3.707-.328 6.547.109-2.402-7.964-1.965-6.546-11.566-9.82 .98-4.254 22.804-11.457 7.199-15.711-2.071,1.199-4.692,3.492-7.199,3.055 4.8-8.836 7.746-15.492 8.183-26.1877 8.074-4.9101 19.859-11.457 20.84-21.8203-5.02,1.1992-11.129,15.8203-21.387,17.7852-.109-.4375-.328-.875-.543-1.418-.984-.3281-1.965-.6563-3.058-1.0938 0-2.289-.11-4.582-.215-6.9804 7.09-5.4571 11.238-9.711 15.82-17.3477-.437,0-.98-.1133-1.527-.2187-3.274,4.0351-9.168,11.5625-14.512,12.5468 0-2.5117-2.73-4.4726-5.129-1.3086-.437.1094-.875.2188-1.418.2188-.328-5.3477-4.367-10.8047-8.84-15.2773 0-5.7813 14.95-16.1485 12.875-24.7696-11.785,16.3672-11.785,16.3672-16.039,21.2774-2.183,0-6.441-3.9258-9.058-6 3.054-1.8555 2.836-1.0899 3.82-4.6914-5.02-5.0196-18.004,1.4179-23.461.3281 1.09-1.3125 1.309-1.7461 1.309-4.0391-2.836-1.8554-6.875.5469-10.477,1.0938-.109-6.2227-1.961-15.4961-.433-22.4805-12.114-10.14453-34.375-10.47266-49.762-13.30859-8.946,0-36.992,7.41799-41.356,16.14839-11.129-14.51167-31.316-12.00386-48.121-8.5117-12.66-8.40232-33.062-8.07419-46.484.4375-10.805-2.62107-24.445-3.82029-36.445-1.8554-4.149,1.7461-4.477.7617-9.387-1.85551-27.391-6.76563-61.324-8.83594-91.004-7.63672-4.039,1.08984-8.512,2.94531-12.332,6.21875-12.875-1.41797-25.535,16.14848-28.043,27.05858-.438-.1094-.875-.2187-1.418-.3281-1.094-3.0547-3.93-2.3984-5.238.3281 .109,3.711.109,7.3086.109,10.9102-1.094.2187-2.074.4375-3.168.5468-2.508,6-2.07,11.6758-2.18,16.9102-2.511-.2148-5.019-.4336-7.64-.7617 5.676-24.7695-28.043-26.2969-45.067-26.2969-20.297,6.5469-49.976-3.9258-73.875,0-16.148,0-77.8-10.3633-70.488,21.6055-2.184-.1094-2.184-.1094-4.367.3281 .219-1.5312 3.383-7.9648 1.418-9.9297-3.707,0-24.551,25.2031-27.606,30.0039-1.308,3.9297-2.617,7.7461-4.039,11.5664-4.472-5.457 3.383-15.1679-6.218-16.1484-1.528,3.1641-2.727,7.0937-3.602,10.0391-1.855-.5469-1.855-.5469-3.602-.5469-3.597,3.8203-7.964,12.875-11.675,15.6015-31.864,4.1486-61.871,34.2616-84.02,55.3206-49.4335,52.261-103.12097,135.84-103.12097,209.492zm726.08597-325.3672c.437-2.0743.871-4.1446 1.309-6.2188 2.73,2.7266 1.746,7.1992 4.367,9.8203 0,1.0899-.11,2.1797-.219,3.1641-1.094,0-2.293-.875-3.82-2.0742 0-.7618.547-2.0743.547-3.9258-.657-.2188-1.418-.4375-2.184-.7656" fill="#231f20"/>
   <path d="m8.3789 368.98c6.4414 55.644 13.531 86.304 73.328 95.144 43.977 0.871 72.348-21.824 95.59-58.047 6.004-11.347 10.258-21.058 13.75-33.824 2.183-47.57-10.039-95.145 9.387-141.84 6.328-10.91 1.089-11.129-6.114-21.058-2.074-4.473-12.328-26.84-9.164-31.641h2.727c-2.293-8.621-4.149-16.367-4.149-26.512 1.422-1.093 0.114-26.843 3.278-33.828 0.543-4.582 1.09-9.164 1.636-13.855-19.863 3.711-40.593 17.019-54.562 31.531-63.289 54.23-125.71 148.5-125.71 233.93" fill="#785f42"/>
   <path d="m21.1484,385.672c5.6719,11.348 43.6485-15.168 51.6133-13.859 7.9649,16.367 13.6406,26.078 25.6406,37.535v1.09c-6.1093,3.054-29.4609,8.839-30.332,13.421 12.4375,10.364 92.3167-42.007 87.8397-57.828-9.711,10.364-36.226,38.953-50.957,40.59-8.0741-9.168-27.0624-23.133-27.0624-38.082 18.7696-10.039 35.0274-19.855 52.1604-31.75 6,0 10.91,26.078 19.859,21.602-.656-7.746-12.769-15.926-14.187-25.856 7.312-5.785 29.789-22.476 27.828-32.734-4.91,5.347-24.774,28.586-30.992,28.586-6.875-14.731-12.547-29.352-16.477-46.699 .438-2.071 45.504-32.95 45.941-32.95 6.11,8.184 2.618,17.239 12.438,18.219 1.855-3.488-5.781-16.582-7.856-22.801 4.364-6.328 20.516-11.347 13.965-18.988-8.402,1.312-9.711,12.875-16.695,12.875-4.254-12.656-15.82-37.313-15.82-51.934 14.621-11.675 14.621-11.675 19.64-16.367 0-.656 0-1.418-.109-2.183-5.02-3.493-14.731,11.894-21.168,13.093-.766-7.308-1.637-14.73-2.512-22.148-6.437,2.074-2.945,22.039-2.398,26.512-19.86,14.293-41.25,25.64-62.3088,38.082v1.09c.4375-.219.7656-.438 1.0899-.766 .1093.437.2187.766.3281,1.094 19.9688-7.203 37.9728-18.661 55.6528-29.789 4.691-3.707 4.691-3.707 5.781-4.036 1.422.329 17.351,50.516 17.351,52.809-9.929,7.855-33.39,29.242-44.629,31.969-7.746-44.735-7.746-44.735-8.511-46.59-.11-.109-.328-.219-.547-.328-1.527,1.308-1.527,1.308-3.492,1.855 0,16.477 5.019,33.715 6.984,49.098-5.891,3.601-39.8281,25.644-44.6289,24.769-.9843-5.562-3.0547-11.566-4.4765-17.894-.543-.324-.543-.324-1.8516.328-1.8555,7.746.7617,14.293 1.0898,21.168-1.3085.871-12.1132,7.199-12.5507,7.965 3.9297,0 9.2773-1.746 12.7695-3.602 4.4727,8.95 5.1289,32.297 7.7461,43.973 1.3086,3.711 3.1641,7.746 2.7305,10.582-13.9688,6.437-31.1016,14.73-47.25,16.148l-1.6368,1.313v1.418" fill="#231f20"/>
   <path d="m65.559 312.9c1.7461 16.257 3.4922 36.55 9.9297 50.625 9.9297 0 42.668-24.004 52.598-30.985-0.875-6.547-7.422-17.566-10.586-24.66-2.836-8.402-2.836-8.402-6.766-23.348-6.656 0-33.937 19.309-45.066 24.219 0 1.418 0 2.84-0.1094 4.149" fill="#785f42"/>
   <path d="m187.336,141.047c1.531,9.601 7.312,18.984 7.312,26.512-.984.984-.984.765-2.726.984-1.313-1.309-1.313-1.309-2.621-4.367-4.145,4.148 11.238,28.152 12.222,33.933-1.089,1.094-1.199.766-3.492.985-3.273-2.949-3.273-2.949-3.929-4.039-.215.109-.543.109-.872.109 2.508,14.949 20.297,24.332 22.153,35.57l-1.313,1.637-2.945-.656c-.109.219-.219.437-.328.547 9.058,11.676 17.133,13.636 26.191,21.386-.328.762-.656,1.418-1.093,2.071-3.383,0-6.547-1.309-10.911-2.18l-.328.328c8.731,7.09 21.606,13.09 32.301,13.09 .328.328.652.656.981.875-.653,4.035-2.836,4.582-6.219,6.875 .871,2.617 22.476-2.402 24.441-5.019h1.965c1.527,4.035.219,6.656-.437,9.382 7.421,1.09 14.406,3.055 20.734,5.02 3.711,3.707 13.094-1.094 16.586,1.199v2.945c-.547.547-.547.547-7.856,2.727 14.95,7.094 33.934,14.621 49.539,10.586 2.403.656 2.184,1.746 2.403,2.617-1.746,1.746-1.746,1.746-3.492,2.84 5.128,5.125 23.132-4.477 28.152-1.313 .219.766.328,1.528.437,2.184l-3.929,3.273c6.984,1.747 13.203.329 19.316-.546 4.801,4.8 26.731-6.11 30.223-12.329l5.785.329c2.836,2.836-1.199,7.855-2.184,10.035 6.438,0 10.039-7.637 14.512-10.364 7.203.762 4.039-.765 9.059-4.363 4.582,0 15.933,5.125 17.023,4.91 6.766-10.804 19.094-7.75 29.461-15.168 3.383,0 3.492,1.418 3.711,3.055 6.656-1.309 10.258-9.602 15.934-9.602 2.07,2.075.652,4.692.433,6 8.949-.871 13.86-13.093 23.57-9.273 .219,1.418.329,2.84.438,4.148 8.074-1.531 11.676-10.148 19.969-11.238 0-2.293-7.203-7.422-7.637-14.949-37.648-2.184-69.621-42.555-25.863-66.559 18.551-5.234 32.301,1.965 48.449-1.089 2.727.109 5.348.109 7.965.109 .219.762.437,1.527.547,2.184-.438.652-.875,1.199-1.309,1.742-1.637,0-4.476-.762-6.547.656 4.035,1.746 9.164,3.82 10.91,6.437-1.418,4.911-29.789-5.89-36.336-7.527-19.531-.547-36.664,3.488-39.394,25.859 3.93,25.094 35.683,37.532 57.18,31.204 3.929-3.711 9.711-11.129 14.949-11.676 .765.875.765.875.984,2.73-.984,1.2-2.074,2.399-3.168,3.602 6.332,2.398 10.805.215 16.043.215 4.801,4.8-11.894,7.531-17.461,1.965-.324,0-.652,0-1.09-.11-3.82,4.258-6.765,6.656-12.004,9.059-8.73,1.418-8.73,1.418-9.164,1.961 2.18,5.894 10.368,18.66 14.622,19.64 0-2.289.109-3.601 2.507-3.816 16.153,17.348.657,35.242-12,49.316 16.149,0 32.625-24.113 32.625-39.715-.761-1.746-1.527-2.511-2.617-5.785 .219-.109.434-.218.543-.328 12.988,6.438 5.238,24.988 19.317,30.551 0-6.652 8.945-20.73 16.914-16.363 0,.433-.11.871-.219,1.308-1.746.434-3.383,1.2-5.129,2.727 8.293,8.293 7.855,11.129 19.641,14.074-1.09-4.363-7.528-5.234-3.602-11.566 2.184-.215 2.512.218 3.602.218 .328-.324.546-.652.765-1.089h1.856c1.855,1.855 10.039,2.293 11.566,2.507 .762-1.961.981-2.945 2.945-4.582 2.399,2.403 1.418,3.274 1.09,5.786 7.422-.329 14.078-2.403 20.735-3.602 1.308-2.074 1.855-3.055 4.035-3.055 3.273,4.145-1.528,6.657-4.035,10.039 10.367,0 24.222-17.675 31.316-17.675 3.055,4.035 6.004,2.07 8.73.543 0-2.618 5.129-7.856 7.204-7.856 1.742,1.637 1.742,1.637 2.179,2.945 7.094-.871 7.965-6.109 10.805-11.89 3.816,0 2.945,1.965 2.727,4.363 3.492-.656 6.656-5.129 9.386-4.691 .762,1.527.762,1.527 1.09,3.601 4.258-.984 19.641-26.953 18.551-9.383 3.601-1.203 7.746-9.168 9.711-12.769 0-10.145 7.64-10.254 15.058-14.184 .11-.433.219-.871.329-1.418-.875-.437-1.856-.871-2.836-1.308 0-.438-.11-.875-.219-1.309 1.418-1.418 7.09-1.309 8.183-1.418 1.961-2.949 5.672-5.238 8.403-7.312v-1.09c-.766-.328-1.637-.656-2.512-1.09 0-6.875 5.676-8.949 11.566-13.313 0-4.148 2.075-8.074 2.075-11.675-1.2-1.09-2.399-2.184-3.711-3.274v-2.179c5.566-3.278 17.57-14.516 16.261-21.059-3.382,2.836-6.222,6.328-10.585,7.527l-1.309-.984v-2.945c14.074-11.457 23.133-28.039 42.773-30.985 .11-.437.219-.875.328-1.308-6.875-1.313-6.875-1.313-8.73-1.313-6.328,8.402-27.172,6.547-35.246,17.133-12.547,8.726-35.68,9.055-44.957,22.367-8.731,6.981-40.047,14.512-49.977,6.219 7.313-6.11 38.957,2.617 44.301-8.074-9.601,1.089-36.226,3.492-43.644-1.746 1.851-1.528 5.019-1.856 5.453-2.618-.981-1.746-26.516-8.73-34.153-12.113-20.187-14.949-31.754-35.57-4.367-53.137 38.305-15.0543 103.231-16.9098 134.985,12.766 4.8,7.422 4.035,17.129 2.179,24.113 11.133,0 25.426-8.726 32.301-16.367-11.566-3.816 2.836-16.473 1.527-24.3281-2.074,1.6331-1.964,2.2891-5.129,2.7271-1.855-2.8364-1.199-3.2739-.761-6.7661-11.024.3281-20.735-3.3828-31.649-3.3828-2.289-3.4922-1.742-4.4727 2.184-5.4532 3.601,3.5977 27.172,7.1993 30.773,4.4727 .438-1.418.438-1.418.219-3.3828l-1.965-.6563c-.109-1.4179-.328-2.8359-.547-4.3632-19.859,5.3476-31.425-1.1993-51.722-5.0196-.438-2.5078-2.289-5.0195 0-7.8554 4.691,0 4.472,1.1992 5.129,4.039 19.097,5.0156 27.824,9.1641 45.832,5.2344-2.184-9.2734-4.368-11.1289-9.496-18.0039-2.836,0-12.547,9.4961-19.969,9.4961-.543-.875-1.309-1.5313-1.309-3.4922 1.856-1.8555 5.02-.6563 6.328-.3281 .875-1.8555 8.184-5.6758 10.586-7.8555v-1.9648c-4.91-4.9102-11.129-2.0743-12.765-12.7657-6.332,1.418-12.77,4.9102-19.645,4.9102-1.855,2.3984-7.094,13.2031-8.293,1.6367-5.238,1.3086-13.531,4.582-15.601,10.1445-.875.1133-1.747.2188-2.622.2188-1.964-2.6172.11-4.3633.329-7.8555-7.532,2.9492-9.383,4.8008-6.329,12.0039 .438,4.0352 4.254,25.3125-3.82,23.3477-.219-3.1641.981-7.9649.766-12.4375-1.746.4375-2.403,1.5273-4.367,1.1992-.11-.8711-.219-1.7461-.329-2.6172-4.691.6563-5.453-13.6406-10.253-19.3125-1.204,1.1992-.547,8.1836-.547,9.1641-6.004,6.0039-9.602-8.293-14.297-14.1836-.106.1094-.324.2187-.543.3281-.219,2.5078-.438,4.9102-.766,7.3086-1.09.6562-1.09.6562-3.82.875-2.399-2.6211-4.801-5.2383-7.309-7.9648-.218.1093-.547.1093-.875.1093 0,2.7266-.543,3.0547-1.636,4.8008-5.239,0-20.621-18.332-24.442-15.4961 3.274,2.9492 5.129,5.2383 5.676,8.5117-3.602,2.7266-11.352-3.7109-15.605-3.2734 3.164,14.293 6.437,22.2578 17.242,29.8945 0,3.711.105,3.168-1.856,5.6758-5.894,0-13.859-16.0391-16.695-21.7148-1.746,1.4179-1.746,1.4179-5.785,3.4922 .875.6562 1.636,1.3085 2.402,1.9648-1.094,6.3281-6.437,5.8906-5.348-2.1836-8.293,0-14.406-3.8164-22.589-8.8359-1.961.6523-12.985,10.2578-15.602,12.875 9.164,5.5625 26.516,16.9101 37.102,12.2187h2.945c1.199,1.9649 1.637,3.711 2.726,5.2383-.652,3.4922-1.527,3.1641-4.91,3.4922-.761-.7656-.98-.6563-1.855-2.836-14.512-.4375-25.317-5.6757-38.192-14.2929-2.074,0-4.691,3.2734-7.093,4.4726-2.289,9.3828-4.692,12.4375-1.746,23.6758 4.367,9.4927 1.418,10.1487-3.493,2.3987-.324.113-.652.219-1.089.328 .546,5.129 3.492,10.148 5.675,13.312-.437,1.856-.875,1.528-2.074,2.508l-5.566-3.273c-.434.328-.434.328 0,4.367 7.203,17.129 13.312,20.074 29.246,21.277 .219.325.437.653.652.981-10.801,10.801-58.488-18.656-55.976-28.914 8.293,1.09 15.058,6.984 22.914,8.836-.653-3.707-4.364-11.891-.653-16.039 .981.656.981.656 2.071.765 0-4.254 0-8.5115-.11-12.7654 .985-.3282 1.965-.6563 2.949-1.0938 .434-9.3828 1.852-12.5469 4.145-20.7305-11.238,3.3829-16.258-7.746-23.352-7.746-11.566,15.1679-29.679,6.6562-42.554,20.5117-1.856,1.0937-2.731,2.6211-5.457,2.0742 0-1.3086 0-2.6172-.11-3.9258 3.821-3.2734 11.02-4.6914 12.114-10.1484-13.094-3.3828-13.094-3.3828-13.422-3.8203-33.281,14.7304-23.461,5.457-55.981-3.2735-.543.7656-1.199,1.5274-1.855,2.1836-7.856-.8711-29.242-7.8555-29.242-18.7656 .871-.4375 1.636-.875 2.398-1.418 .109-.3281.109-.6562.109-1.0937-4.253-5.5625-4.253-25.8594-5.019-34.1524-.981,0-2.07-.1054-3.164-.2148-5.567,5.5625-4.363,8.7265-11.238,8.0742-7.641,8.5078-5.129,18.875-9.278,24.4375-.652.1094-1.308.2188-2.07.2188-1.965-9.6016-2.184-2.7266-1.965,2.7304 1.199,4.3633 3.711,10.3633 3.711,14.1836-4.695,1.5274-5.676-4.4765-9.168-3.6015-.656,17.0195-2.617,28.8046 7.641,43.2067v1.528c-.657.547-1.313.98-1.965,1.418-1.203-.219-7.313-7.309-8.621-6.0004 5.89,10.9104 11.238,17.8944 19.312,25.9684 0,1.09 0,1.09-1.09,2.618-2.726,0-2.726,0-6-2.399-.109.219-.218.434-.328.543 4.145,4.695 17.676,13.859 17.676,15.606-3.602,3.601-8.074-.657-8.945.218 12.765,11.02 21.605,9.821 34.371,16.145v1.855c-7.641,7.641-38.082-13.09-43.32-23.675-2.403-1.528-5.458-.872-5.458-5.454 4.258-4.257-3.273-6.656-3.273-12.332 5.129-3.816-16.148-26.9489-6.219-28.1481 .871.7617 1.746,1.5274 2.508,2.2891 0-6.5469-1.637-14.6211-2.18-22.4766-1.308-.2187-5.457-1.3086-7.64-1.3086-.762.9805-6.328,13.9649-10.692,22.0391-8.402,9.0586-15.714,13.6411-28.918,14.7301-3.164-1.418-9.711-5.7809-13.859-2.726 1.856,2.289 2.621,3.601 3.602,5.453 .437.109.765.219 1.089.219 7.422-11.891 7.86,11.894 7.86,13.531 2.398,2.398.762,5.238.219,7.637 2.836-1.09 4.144-.981 6,.437 0,3.383-3.602,5.781-3.055,7.965 5.562,2.945-.656,9.82-1.199,13.422 3.379-.219 3.925-.328 6.218-1.965 2.399.98 2.508,1.309 3.274,2.398-5.457,6.11-16.149,16.258-18.879,23.571 5.894-.766 10.148-6.004 16.367-5.239 1.418,1.856 1.418,1.856 1.637,3.055-4.254,2.836-8.617,5.672-11.457,9.93 0,6.765-5.129,9.383-7.637,14.512 4.91.328 4.473,2.507 6.109,5.128-7.964,14.836-25.535,25.86-37.101,37.641 1.094.219 1.094.219 9.82-.871 1.313,1.637 1.746,1.965 1.746,3.055-6.437,4.144-24.004,14.621-31.863,11.675-.105-.546-.324-1.203-.543-1.855 3.602-3.602 13.641-2.184 18.332-6.875-2.183-.656-4.367-1.418-6.547-2.184 .219-.871.434-1.746.543-2.617 13.313-7.418 31.758-21.605 38.41-34.804-4.582,1.199-15.273,7.746-18.222,5.562 4.039-8.184 19.535-12.984 19.535-24.113 1.09-2.399 2.07-4.801 3.055-7.199-2.512.761-7.75,4.8-10.696,2.835 0-7.964 16.153-21.824 15.387-25.097-4.363,2.949-5.02,5.019-10.586,5.347 0-2.183 1.965-2.835 2.184-5.347-.547-.106-1.09-.215-1.746-.324 0-.438-.11-.875-.219-1.418 2.621-2.946 2.945-4.582 2.945-9.168l-1.309-.653c0-9.277 5.458-20.73 4.801-32.078-3.383,4.91-5.562,11.453-11.019,14.184 0-9.168 5.238-8.293 1.746-19.203-1.965,1.418 0,2.398-3.492,3.054-2.184-2.183-1.418-6.437-2.946-10.6911-4.039,0-5.785-.875-9.82-4.1484-11.895,1.9648-15.824,8.6215-31.648,6.5465-20.731-5.8902-20.731-5.8902-27.278-7.3082-9.058-4.3672-9.058-4.3672-9.929-4.2578 .546,3.164 1.418,3.4922 1.199,6.1093-4.582,0-17.676-6-22.153-1.5273-2.507-.3242-2.507.2188-3.054-3.0547 2.617-2.3984 4.91-2.9453 7.75-3.707-1.094-3.3828-8.512-3.3828-12.66-3.2735 0-.4375-.11-.875-.219-1.4218 5.785-5.7813 5.785-5.7813 9.605-8.7266-6.765-1.6367-16.261,2.3984-23.246-1.9648 0-5.4532 9.278-7.7461 13.422-9.4922 .109-.4375.219-.8711.328-1.3086-23.351-3.8203-54.015,8.5117-48.121,38.1872 .656,1.094 1.309,2.184 1.856,3.274-.329,1.09-.657,2.183-.985,3.164l-2.945-.328c-2.727-6.5472-6.547-10.9105-9.383-20.2933-5.129,4.1445-1.418,11.457-7.312,12.2187-.762-.4336-1.09-.7617-1.418-2.7265h-1.09c-.11.9804-.328,1.9648-.547,2.9453 3.055,3.8208.219,5.2378-4.258,5.2378-2.945,15.059-.215,24.77.984,37.969-4.363,2.84-4.363-2.07-6.546-5.781-.329.328-.329.328-.766,5.129" fill="#a4835b"/>
   <path d="m199.887,92.2734c1.09-.1093 1.418-.5468 3.273-.3281-.109-.4375-.219-.8711-.328-1.3086-.547-.1094-1.199-.2187-1.855-.3281-.329.6562-.653,1.3125-1.09,1.9648" fill="#a4835b"/>
   <path d="m235.57,61.3945c3.274.875 3.274.875 4.692.7657 .433-1.5274 2.398-4.5821 1.855-6.9844-5.238,4.3633-5.238,4.3633-6.547,6.2187" fill="#a4835b"/>
   <path d="m250.844,57.0313c11.785-.875 13.531.6562 22.48,3.6015 2.617,5.3438-6.328,7.6367-9.82,9.4922 3.383.1094 33.5-1.8555 26.297,10.1484-2.946-.9843-13.422-2.6211-14.621,2.5079 1.855.6562 3.711,1.3085 5.457,1.8554 0-1.6367-.114-2.6211 1.09-4.1484 11.894.9844 27.062,9.8203 39.281,12.5469 0-3.7071-5.891-6.1094-4.692-13.0899 2.512.543 3.602,3.4922 4.692,3.8164 .109-.1094-4.91-12.7656-2.836-19.0937 13.422,30.5508 27.281,45.062 55.215,17.1328 7.746-9.4922 28.48-34.3711 5.129-39.5-33.719-1.7461-69.403-1.418-104.102-1.418-15.93,1.7461-15.168,2.6172-23.57,16.1485" fill="#a4835b"/>
   <path d="m281.18,85.3984c2.183,1.418 2.402,2.0743 2.73,3.4922 4.035,1.418 4.035,1.418 6.875,1.9649 0-2.0742-6.113-4.1446-9.058-6.2188-.11.3281-.329.5469-.547.7617" fill="#a4835b"/>
   <path d="m371.2 92.602c0.985 0 1.965 0 2.949-0.1094 24.989 11.567 47.137-25.531 47.137-46.809-4.473-4.1445-26.625-8.1836-29.351-3.6016 13.64 20.406-16.04 36.336-20.735 50.52" fill="#a4835b"/>
   <path d="m393.46 133.41c0.875-1.422 1.637-2.512 1.965-4.801-1.965 1.961-2.184 2.399-1.965 4.801" fill="#a4835b"/>
   <path d="m394.449,98.0586c23.024-.9844 32.844-18.332 38.41-39.6094-.218-5.3476.543-7.7461-4.476-11.6758-.543.4375-2.074,8.7305-4.91,18.2227-7.2,14.293-10.91,18.332-21.496,29.4609-2.075,1.3086-6.438,2.7266-7.528,3.6016" fill="#a4835b"/>
   <path d="m486.652,23.5352c2.293,4.9101 5.786,7.8554 5.786,12-.875.7656-1.965,1.4179-3.821.5468 0,7.418 11.133,12.2188 11.133,17.6758-.875.4375-1.859.9805-3.93-.2187-.109.2187-.218.4375-.437.5468 3.93,2.836 8.949,5.7813 12.441,6.8711-.437-2.5078-2.293-5.3437-2.293-9.0547 .547-.4375 1.09-.871 1.637-1.4179 7.312,7.3125 12.004,9.7109 21.059,13.0937-1.418-6-6-6.5468-6.547-16.039 1.855,0 7.203,10.039 10.148,11.2382-.762-2.5078-4.801-14.4023-.328-17.0234 .547.3281.547.3281 3.492,11.2383 17.242,33.9336 38.738,8.0781 55.434-13.0899 12.332-21.6054 3.054-25.0976-20.731-30.33589-48.015-1.41797-48.015-1.41797-69.511-2.50782-11.786,1.63672-13.532,6.10941-13.532,16.47661" fill="#a4835b"/>
   <path d="m532.484,213.605c3.926,26.184 29.899,23.786 48.121,17.02 1.309-1.746 1.309-2.617 1.309-5.348-.98-.871-.98-.871-5.344-2.507 3.598-1.856 6-1.637 6.766-5.457-.547-.872-1.965-1.309-4.148-2.18 2.292-.766 3.82-1.313 3.273-4.039-1.856-.871-5.129-1.528-6.219-2.403 5.129-.871 5.129-.871 5.891-1.527 0-.762 0-1.527-.11-2.289-12.003-1.965-22.148-10.582-34.48-6.219-7.75,4.473-13.531,5.672-15.059,14.949" fill="#231f20"/>
   <path d="m536.41,215.133c6.442,17.238 20.735,20.074 36.231,12.328 .109-.328.218-.656.218-1.09-1.418-1.094-1.527-6.328-1.527-9.492 1.637-1.527 4.035-2.621 4.582-5.02-9.93-5.129-16.039-14.402-29.465-7.75-6.98,5.895-6.98,5.895-10.039,7.75v3.274" fill="#cfa550"/>
   <path d="m540.449,133.41c2.184,6.981 5.567,20.512 12.551,21.602 1.418-.871.98-.657 1.309-2.399-3.274-2.183-9.93-9.058-9.387-14.84 .437,0 .766-.109 1.094-.218 1.418,1.527 2.726,2.945 4.035,4.363 1.855,0 1.855,0 2.402-.547-.547-3.598-6.547-11.672-8.402-17.781 1.09-1.094 1.09-1.094 1.855-3.274 .438,0 .871-.109 1.199-.218 3.274,3.054 4.911,6.656 8.403,6.218 0-5.128-2.945-10.586-2.508-17.675 1.961.656 2.617,2.507 3.273,3.492h1.747c2.398-3.711-2.403-12.2228 2.945-16.258 1.418,3.8164 1.418,6.109 4.691,6.109 1.965-2.9449-.109-10.5817 3.274-16.0387 2.402.5469 2.726,1.7461 4.367,1.9649-1.203-5.1289-1.203-5.1289-2.184-7.6368-.765,0-1.636,0-2.511-.1132-2.727,2.7304-4.036,11.4609-4.692,15.3867-.328-.1094-.652-.2188-1.09-.3281-.328-1.0899-.656-2.1836-1.093-3.2735-.653,0-1.418-.1094-2.18-.2187-2.621,2.6211-3.383,7.3125-4.039,10.3674-1.09,0-2.184,0-3.274-.11-2.945,3.383-2.293,13.532-1.855,16.805-1.418-.437-3.164-4.586-4.473-7.203-.875,0-1.746-.109-2.726-.219-1.094,7.313-.766,11.567-.438,18.332-2.949.328-2.293,1.856-2.293,3.711" fill="#231f20"/>
   <path d="m578.42 63.906 10.148 2.9453c-1.09-2.836-3.054-6.3282-3.597-10.258-1.637 0-6.551 5.7851-6.551 7.3125" fill="#a4835b"/>
   <path d="m587.7 53.32c8.074 18.223 12.438 21.168 29.242 8.293 6.875-9.4922 20.079-29.352 15.497-42.441-4.583-4.586-29.571-6.2227-32.954-2.8399 12.004 12.004-11.785 29.57-11.785 36.988" fill="#a4835b"/>
   <path d="m626.871,58.4492c2.074,1.3086 2.293,1.9649 3.602,2.1836 .218-1.7461.984-2.4023 2.183-3.6015 5.676,4.9101 7.313,9.2734 14.403,7.6367 0-1.8555-3.493-3.2735-2.836-6 12.765,2.0742 2.511,7.9648 17.894-1.8555 12.223-12.2187-.433-6.3281-1.855-20.5117 5.238.9805 8.078,8.5117 11.242,8.5117 22.914-33.1719-4.149-37.31641-33.066-28.6953 0,17.2383-2.727,25.7461-11.782,40.9141 .11.5468.215.9804.215,1.4179" fill="#a4835b"/>
   <path d="m656.445,89c2.18,2.1836 1.965,1.8555 3.817,2.0742 .437-.4375.875-.875 1.312-1.3086-.328-2.6211-.328-2.6211-.984-3.4922-.762-.1093-1.637-.2187-2.508-.3281-1.203,1.1992-1.637,1.7461-1.637,3.0547" fill="#231f20"/>
   <path d="m657.54 212.51c3.93 25.968 34.59 33.933 46.266 9.492 5.347-26.621-6.11-40.695-34.481-32.078-10.039 7.531-10.476 11.457-11.785 22.586" fill="#231f20"/>
   <path d="m668.34,109.73c4.363,1.637 4.582,1.094 4.144-3.273-1.199-.543-1.636-1.199-4.254-.871 .11,1.418.11,2.836.11,4.144" fill="#231f20"/>
   <path d="m669.211,123.914c1.965,1.746 3.492.547 4.473.328 0-3.601.875-3.711-3.598-4.144-.984,1.418-.766,2.836-.875,3.816" fill="#231f20"/>
   <path d="m679.03 105.7c0.875 1.746 1.856 1.528 2.731 1.746 1.636-1.636 3.383-4.257-1.094-4.8-1.199 1.199-1.637 1.746-1.637 3.054" fill="#231f20"/>
   <path d="m679.031,51.1406c11.457,7.3086 14.297,6.1094 24.879,5.4532-.324-1.7461-.762-3.6016-1.199-5.4532-6.766-2.5117-10.039-8.1836-18.441-2.2929-1.747.4375-3.493.875-5.239,1.1992v1.0937" fill="#a4835b"/>
   <path d="m679.58 43.5c6.875-0.4336 6.875-0.4336 9.82-1.0898 0-2.7266-0.328-3.3829 1.418-6.1094 3.274 0 6.438 2.7265 9.821 3.2734 0.437-10.258 2.73-15.602 4.691-25.531-4.473 0-16.586 0.3242-20.293 3.164 1.961 10.91-1.418 16.691-5.457 26.293" fill="#a4835b"/>
   <path d="m688.527,198.109c3.926,6.985 2.508,13.532 2.618,20.297 1.418.11 2.726.215 4.039.215 1.089-6.219 3.816-20.512-6.547-21.711 0,.438 0,.875-.11,1.199" fill="#fff"/>
   <path d="m698.676,43.9375c1.308,1.6367 1.742,1.7461 2.726,2.1836-.109-.6563-.218-1.418-.328-2.1836-.761-.1094-1.527-.3281-2.293-.543 0,.2149 0,.4336-.105.543" fill="#a4835b"/>
   <path d="m704.9 33.356c0.109 0.4336 16.367 3.4883 17.457 3.2734 3.164-15.168 2.839-20.73-15.93-21.934-1.199 6.875-1.418 12.332-1.527 18.66" fill="#a4835b"/>
   <path d="m705.547,40.2305c.875.1054 1.637.1054 2.402.1054-1.09-.9804-1.09-.9804-2.183-1.3086 0,.4375-.11.875-.219,1.2032" fill="#a4835b"/>
   <path d="m726.72 79.945c1.418 2.9453 8.726 2.2891 3.383-3.0547-3.602 0-3.383 0.3242-3.383 3.0547" fill="#231f20"/>
   <path d="m731.41,67.9414c3.164,2.4024 3.383.2188 3.602-2.1797-.875-.5469-.875-.5469-3.602-.4375v2.6172" fill="#231f20"/>
   <path d="m735.773,33.3555c1.856,7.7461 7.75,14.6211 13.969,16.6914-.871-3.9258-4.801-6.3281.438-9.8164 1.418.6523 1.418.6523 9.383,8.289 9.71-1.4179 10.367-.2187 16.695,7.6368 .219,0 .437-.1094.656-.2149 0-9.3828-6.113-26.625-1.312-36.2266h1.421c4.692,4.6915 3.274,26.7344 5.782,34.3711 2.293,0 8.074-4.8007 10.258-6 22.371-6.6562 24.007,4.6914 21.605-27.0586-14.949-10.3671-67.871-17.89449-78.566,3.5977-.11,2.9453-.219,5.8906-.329,8.7305" fill="#fff"/>
   <path d="m743.086,72.3086c.98,1.9609.328,2.6172.109,3.5977h1.09c.11-.4336.219-.8711.328-1.418 .981-.2188 1.965-.543 2.946-.8711 0-1.9649.218-2.0742-2.18-3.9297-.328.1094-2.949,1.6367-2.293,2.6211" fill="#231f20"/>
   <path d="m754.32 210c6.004 28.586 35.793 27.059 43.649 1.418 1.636-39.5-42.34-37.207-43.649-1.418" fill="#231f20"/>
   <path d="m757.38 163.2c17.898 1.309 61.656-2.398 66.891-21.824-11.02 4.039-21.825 10.039-33.063 14.406-4.035 0.981-33.609 5.782-33.828 7.418" fill="#fff"/>
   <path d="m780.188,193.418c4.253,8.512 3.601,14.512 3.71,22.367 11.02,0 4.911-21.82-3.601-23.238-.328.543-.328.543-.109.871" fill="#fff"/>
   <path d="m818.707,90.0898c2.07,2.5118 1.856,2.7305 4.035,1.8555 .11-1.0898.219-2.1797.328-3.2734-.761-.7617-1.199-.6524-3.164-.8711-1.09.7617-1.09,1.6367-1.199,2.289" fill="#231f20"/>
   <path d="m828.53 58.777c7.528 7.5274 6.11-6.5468 0-2.5078v2.5078" fill="#231f20"/>
   <path d="m843.039,105.367c2.621,2.074 4.367,1.856 4.367-1.418-.765-.437-1.527-.984-2.293-1.527-1.199.543-2.074,1.09-2.074,2.945" fill="#231f20"/>
  </g>
 </g>
</svg>
