<?xml version="1.0" encoding="UTF-8"?>
<svg viewBox="0 0 60 60" xmlns="http://www.w3.org/2000/svg">
 <path transform="matrix(1.1507 0 0 1.1507 -1.8809 -3.8516)" d="m38.71 12.795h9.7359m-4.6361 0v33.008m-5.0997 0.89212h9.9677" fill="none" stroke="#333" stroke-linecap="round" stroke-linejoin="round" stroke-width="4.3453"/>
 <path transform="scale(4.1328)" d="m1.3728,9.85248 1.875-5.09766c.16797-.44922.30664-.78125.41602-.99609 .10938-.21875.25977-.40234.45117-.55078s.44141-.22852.75-.22852c.31641,0 .57227.07617.76758.22852s.35547.34375.46875.57422c.11719.22656.25391.55078.41016.97266l1.86914,5.09766c.11719.30859.19336.54687.22852.71484 .03906.16406.05859.33008.05859.49805 0,.24219-.08594.4375-.25781.58594-.16797.14453-.39258.2168-.67383.2168-.19531,0-.35938-.03906-.49219-.11719s-.24023-.1875-.32227-.32813-.14844-.3125-.21094-.51563l-.23438-.76758h-3.19336l-.24023.76758c-.10156.31641-.22461.55664-.36914.7207s-.35742.24023-.65039.24023c-.27734,0-.50391-.07227-.67969-.2168-.17188-.14844-.25781-.34375-.25781-.58594 0-.14453.01563-.29492.04688-.45117 .03516-.16016.11523-.41406.24023-.76172zm4.52344-1.53516-.97266-3.1582h-.02344l-1.04297,3.1582h2.03906z" fill="#333"/>
</svg>
