<?xml version="1.0" encoding="UTF-8" standalone="no"?>
<svg
   xmlns:dc="http://purl.org/dc/elements/1.1/"
   xmlns:cc="http://creativecommons.org/ns#"
   xmlns:rdf="http://www.w3.org/1999/02/22-rdf-syntax-ns#"
   xmlns:svg="http://www.w3.org/2000/svg"
   xmlns="http://www.w3.org/2000/svg"
   viewBox="0 0 224.60133 294.55692"
   height="294.55692"
   width="224.60133"
   xml:space="preserve"
   id="svg2"
   version="1.1"><metadata
     id="metadata8"><rdf:RDF><cc:Work
         rdf:about=""><dc:format>image/svg+xml</dc:format><dc:type
           rdf:resource="http://purl.org/dc/dcmitype/StillImage" /><dc:title></dc:title></cc:Work></rdf:RDF></metadata><defs
     id="defs6"><clipPath
       id="clipPath18"
       clipPathUnits="userSpaceOnUse"><path
         id="path16"
         d="M 0,595.28 H 841.89 V 0 H 0 Z" /></clipPath><clipPath
       id="clipPath78"
       clipPathUnits="userSpaceOnUse"><path
         id="path76"
         d="m 123.1,208.113 c -3.674,0 -6.653,-2.98 -6.653,-6.653 v 0 -71.451 c 0,-3.675 2.979,-6.654 6.653,-6.654 v 0 h 123.61 c 3.675,0 6.653,2.979 6.653,6.654 v 0 71.451 c 0,3.673 -2.978,6.653 -6.653,6.653 v 0 z" /></clipPath><linearGradient
       id="linearGradient88"
       spreadMethod="pad"
       gradientTransform="matrix(2.6849837,-37.973198,-37.973198,-2.6849837,184.43555,172.37793)"
       gradientUnits="userSpaceOnUse"
       y2="0"
       x2="1"
       y1="0"
       x1="0"><stop
         id="stop84"
         offset="0"
         style="stop-opacity:1;stop-color:#e7e7e7" /><stop
         id="stop86"
         offset="1"
         style="stop-opacity:1;stop-color:#c7c7c6" /></linearGradient><clipPath
       id="clipPath98"
       clipPathUnits="userSpaceOnUse"><path
         id="path96"
         d="M 0,595.28 H 841.89 V 0 H 0 Z" /></clipPath><clipPath
       id="clipPath178"
       clipPathUnits="userSpaceOnUse"><path
         id="path176"
         d="m 201.865,464.3 c -4.832,-3.406 -7.248,-7.804 -7.248,-13.193 v 0 c 0,-4.016 1.068,-7.377 3.207,-10.084 v 0 c 2.136,-2.708 5.641,-4.851 10.511,-6.431 v 0 c 2.124,-0.699 4.397,-1.276 6.819,-1.729 v 0 c 2.423,-0.454 4.722,-0.94 6.898,-1.458 v 0 c 2.072,-0.492 3.646,-1.199 4.722,-2.118 v 0 c 1.075,-0.919 1.613,-2.015 1.613,-3.283 v 0 c 0,-1.373 -0.369,-2.409 -1.107,-3.108 v 0 c -0.739,-0.701 -1.679,-1.284 -2.818,-1.75 v 0 c -0.933,-0.363 -2.138,-0.621 -3.615,-0.777 v 0 c -1.476,-0.155 -2.668,-0.234 -3.575,-0.234 v 0 c -3.524,0 -7.195,0.662 -11.016,1.983 v 0 c -3.822,1.32 -7.273,3.211 -10.356,5.674 v 0 h -1.632 v -13.874 c 3.109,-1.295 6.444,-2.364 10.005,-3.206 v 0 c 3.563,-0.841 7.74,-1.262 12.534,-1.262 v 0 c 8.289,0 14.849,1.781 19.682,5.343 v 0 c 4.832,3.561 7.247,8.193 7.247,13.891 v 0 c 0,3.99 -1.056,7.235 -3.167,9.736 v 0 c -2.112,2.5 -5.382,4.474 -9.812,5.925 v 0 c -2.253,0.726 -4.359,1.296 -6.315,1.71 v 0 c -1.957,0.415 -3.996,0.842 -6.12,1.283 v 0 c -3.238,0.673 -5.44,1.418 -6.606,2.235 v 0 c -1.166,0.815 -1.748,1.987 -1.748,3.517 v 0 c 0,1.01 0.362,1.91 1.087,2.7 v 0 c 0.725,0.79 1.594,1.379 2.603,1.768 v 0 c 1.14,0.466 2.326,0.783 3.556,0.951 v 0 c 1.231,0.169 2.468,0.254 3.712,0.254 v 0 c 3.522,0 6.976,-0.628 10.356,-1.885 v 0 c 3.381,-1.257 6.237,-2.817 8.568,-4.682 v 0 h 1.593 v 13.328 c -2.72,1.113 -5.939,2.04 -9.656,2.778 v 0 c -3.718,0.739 -7.48,1.108 -11.29,1.108 v 0 c -7.59,0 -13.801,-1.703 -18.632,-5.11" /></clipPath><linearGradient
       id="linearGradient190"
       spreadMethod="pad"
       gradientTransform="matrix(416.15039,0,0,-416.15039,194.26758,439.42969)"
       gradientUnits="userSpaceOnUse"
       y2="0"
       x2="1"
       y1="0"
       x1="0"><stop
         id="stop184"
         offset="0"
         style="stop-opacity:1;stop-color:#23398e" /><stop
         id="stop186"
         offset="0.983146"
         style="stop-opacity:1;stop-color:#263065" /><stop
         id="stop188"
         offset="1"
         style="stop-opacity:1;stop-color:#263065" /></linearGradient><clipPath
       id="clipPath200"
       clipPathUnits="userSpaceOnUse"><path
         id="path198"
         d="M 289.631,468.361 V 432.26 c 0,-4.171 -0.863,-7.202 -2.586,-9.093 v 0 c -1.723,-1.891 -4.448,-2.836 -8.179,-2.836 v 0 c -3.783,0 -6.516,0.983 -8.199,2.952 v 0 c -1.685,1.97 -2.527,4.961 -2.527,8.977 v 0 36.101 h -14.999 v -36.956 c 0,-7.123 2.169,-12.59 6.509,-16.398 v 0 c 4.339,-3.81 10.745,-5.714 19.216,-5.714 v 0 c 8.471,0 14.883,1.904 19.236,5.714 v 0 c 4.352,3.808 6.528,9.288 6.528,16.438 v 0 36.916 z" /></clipPath><linearGradient
       id="linearGradient212"
       spreadMethod="pad"
       gradientTransform="matrix(416.15039,0,0,-416.15039,194.26758,439.42969)"
       gradientUnits="userSpaceOnUse"
       y2="0"
       x2="1"
       y1="0"
       x1="0"><stop
         id="stop206"
         offset="0"
         style="stop-opacity:1;stop-color:#23398e" /><stop
         id="stop208"
         offset="0.983146"
         style="stop-opacity:1;stop-color:#263065" /><stop
         id="stop210"
         offset="1"
         style="stop-opacity:1;stop-color:#263065" /></linearGradient><clipPath
       id="clipPath222"
       clipPathUnits="userSpaceOnUse"><path
         id="path220"
         d="m 318.58,468.361 v -57.862 h 14.922 v 18.848 h 9.287 c 4.224,0 7.754,0.582 10.591,1.748 v 0 c 2.836,1.165 5.407,2.888 7.714,5.168 v 0 c 1.683,1.682 2.978,3.762 3.884,6.237 v 0 c 0.909,2.474 1.362,5.006 1.362,7.597 v 0 c 0,3.342 -0.616,6.204 -1.847,8.589 v 0 c -1.231,2.383 -3.012,4.338 -5.342,5.867 v 0 c -1.944,1.269 -4.178,2.221 -6.704,2.857 v 0 c -2.526,0.633 -5.628,0.951 -9.307,0.951 v 0 z m 14.922,-10.803 h 2.565 c 2.462,0 4.431,-0.032 5.907,-0.097 v 0 c 1.477,-0.064 2.992,-0.407 4.547,-1.028 v 0 c 1.166,-0.465 2.189,-1.286 3.07,-2.461 v 0 c 0.88,-1.176 1.322,-2.579 1.322,-4.207 v 0 c 0,-1.655 -0.215,-3.058 -0.643,-4.208 v 0 c -0.426,-1.149 -1.12,-2.139 -2.078,-2.966 v 0 c -1.115,-0.93 -2.494,-1.55 -4.138,-1.86 v 0 c -1.647,-0.312 -3.738,-0.465 -6.277,-0.465 v 0 h -4.275 z" /></clipPath><linearGradient
       id="linearGradient234"
       spreadMethod="pad"
       gradientTransform="matrix(416.15039,0,0,-416.15039,194.26758,439.42969)"
       gradientUnits="userSpaceOnUse"
       y2="0"
       x2="1"
       y1="0"
       x1="0"><stop
         id="stop228"
         offset="0"
         style="stop-opacity:1;stop-color:#23398e" /><stop
         id="stop230"
         offset="0.983146"
         style="stop-opacity:1;stop-color:#263065" /><stop
         id="stop232"
         offset="1"
         style="stop-opacity:1;stop-color:#263065" /></linearGradient><clipPath
       id="clipPath244"
       clipPathUnits="userSpaceOnUse"><path
         id="path242"
         d="m 376.909,468.361 v -57.862 h 14.923 v 18.848 h 9.287 c 4.221,0 7.754,0.582 10.59,1.748 v 0 c 2.837,1.165 5.407,2.888 7.713,5.168 v 0 c 1.683,1.682 2.979,3.762 3.887,6.237 v 0 c 0.905,2.474 1.36,5.006 1.36,7.597 v 0 c 0,3.342 -0.616,6.204 -1.845,8.589 v 0 c -1.233,2.383 -3.013,4.338 -5.346,5.867 v 0 c -1.942,1.269 -4.174,2.221 -6.703,2.857 v 0 c -2.524,0.633 -5.628,0.951 -9.305,0.951 v 0 z m 14.923,-10.803 h 2.564 c 2.46,0 4.43,-0.032 5.906,-0.097 v 0 c 1.476,-0.064 2.994,-0.407 4.548,-1.028 v 0 c 1.166,-0.465 2.188,-1.286 3.07,-2.461 v 0 c 0.882,-1.176 1.32,-2.579 1.32,-4.207 v 0 c 0,-1.655 -0.213,-3.058 -0.642,-4.208 v 0 c -0.426,-1.149 -1.118,-2.139 -2.079,-2.966 v 0 c -1.113,-0.93 -2.491,-1.55 -4.135,-1.86 v 0 c -1.648,-0.312 -3.739,-0.465 -6.278,-0.465 v 0 h -4.274 z" /></clipPath><linearGradient
       id="linearGradient256"
       spreadMethod="pad"
       gradientTransform="matrix(416.15039,0,0,-416.15039,194.26758,439.42969)"
       gradientUnits="userSpaceOnUse"
       y2="0"
       x2="1"
       y1="0"
       x1="0"><stop
         id="stop250"
         offset="0"
         style="stop-opacity:1;stop-color:#23398e" /><stop
         id="stop252"
         offset="0.983146"
         style="stop-opacity:1;stop-color:#263065" /><stop
         id="stop254"
         offset="1"
         style="stop-opacity:1;stop-color:#263065" /></linearGradient><clipPath
       id="clipPath266"
       clipPathUnits="userSpaceOnUse"><path
         id="path264"
         d="m 439.785,461.463 c -5.285,-5.401 -7.93,-12.752 -7.93,-22.052 v 0 c 0,-9.224 2.645,-16.549 7.93,-21.976 v 0 c 5.283,-5.428 12.577,-8.142 21.877,-8.142 v 0 c 9.328,0 16.633,2.714 21.918,8.142 v 0 c 5.283,5.427 7.926,12.752 7.926,21.976 v 0 c 0,9.3 -2.657,16.651 -7.967,22.052 v 0 c -5.309,5.402 -12.605,8.103 -21.877,8.103 v 0 c -9.3,0 -16.594,-2.701 -21.877,-8.103 m 16.438,-40.161 c -1.735,0.725 -3.254,1.852 -4.547,3.381 v 0 c -1.297,1.528 -2.34,3.503 -3.129,5.926 v 0 c -0.789,2.422 -1.186,5.355 -1.186,8.802 v 0 c 0,3.367 0.409,6.327 1.225,8.88 v 0 c 0.816,2.55 1.871,4.552 3.166,6.003 v 0 c 1.401,1.554 2.933,2.667 4.606,3.342 v 0 c 1.671,0.673 3.455,1.01 5.343,1.01 v 0 c 1.867,0 3.658,-0.35 5.385,-1.049 v 0 c 1.719,-0.699 3.242,-1.826 4.563,-3.381 v 0 c 1.296,-1.502 2.345,-3.472 3.148,-5.906 v 0 c 0.804,-2.436 1.205,-5.389 1.205,-8.861 v 0 c 0,-3.239 -0.349,-6.056 -1.049,-8.452 v 0 c -0.701,-2.396 -1.775,-4.475 -3.224,-6.238 v 0 c -1.297,-1.553 -2.813,-2.699 -4.547,-3.437 v 0 c -1.739,-0.739 -3.563,-1.108 -5.481,-1.108 v 0 c -1.916,0 -3.744,0.362 -5.478,1.088" /></clipPath><linearGradient
       id="linearGradient278"
       spreadMethod="pad"
       gradientTransform="matrix(416.15039,0,0,-416.15039,194.26758,439.42969)"
       gradientUnits="userSpaceOnUse"
       y2="0"
       x2="1"
       y1="0"
       x1="0"><stop
         id="stop272"
         offset="0"
         style="stop-opacity:1;stop-color:#23398e" /><stop
         id="stop274"
         offset="0.983146"
         style="stop-opacity:1;stop-color:#263065" /><stop
         id="stop276"
         offset="1"
         style="stop-opacity:1;stop-color:#263065" /></linearGradient><clipPath
       id="clipPath288"
       clipPathUnits="userSpaceOnUse"><path
         id="path286"
         d="m 502.893,468.361 v -57.862 h 14.844 v 21.217 h 6.914 l 15.741,-21.217 h 18.227 l -19.315,24.792 c 3.679,1.788 6.51,4.028 8.491,6.722 v 0 c 1.983,2.695 2.973,6.181 2.973,10.454 v 0 c 0,3.11 -0.639,5.693 -1.925,7.753 v 0 c -1.28,2.06 -3.011,3.736 -5.187,5.032 v 0 c -2.15,1.295 -4.455,2.138 -6.914,2.527 v 0 c -2.465,0.388 -5.405,0.582 -8.824,0.582 v 0 z m 14.844,-10.647 h 5.403 c 1.786,0 3.354,-0.047 4.702,-0.137 v 0 c 1.345,-0.091 2.525,-0.343 3.535,-0.757 v 0 c 1.449,-0.596 2.472,-1.413 3.072,-2.449 v 0 c 0.594,-1.036 0.893,-2.279 0.893,-3.73 v 0 c 0,-1.632 -0.243,-2.933 -0.721,-3.905 v 0 c -0.478,-0.971 -1.236,-1.86 -2.271,-2.663 v 0 c -1.088,-0.828 -2.436,-1.359 -4.044,-1.593 v 0 c -1.604,-0.233 -3.599,-0.35 -5.982,-0.35 v 0 h -4.587 z" /></clipPath><linearGradient
       id="linearGradient300"
       spreadMethod="pad"
       gradientTransform="matrix(416.15039,0,0,-416.15039,194.26758,439.42969)"
       gradientUnits="userSpaceOnUse"
       y2="0"
       x2="1"
       y1="0"
       x1="0"><stop
         id="stop294"
         offset="0"
         style="stop-opacity:1;stop-color:#23398e" /><stop
         id="stop296"
         offset="0.983146"
         style="stop-opacity:1;stop-color:#263065" /><stop
         id="stop298"
         offset="1"
         style="stop-opacity:1;stop-color:#263065" /></linearGradient><clipPath
       id="clipPath310"
       clipPathUnits="userSpaceOnUse"><path
         id="path308"
         d="m 559.357,468.361 v -11.192 h 18.07 v -46.67 h 14.922 v 46.67 h 18.069 v 11.192 z" /></clipPath><linearGradient
       id="linearGradient322"
       spreadMethod="pad"
       gradientTransform="matrix(416.15039,0,0,-416.15039,194.26758,439.42969)"
       gradientUnits="userSpaceOnUse"
       y2="0"
       x2="1"
       y1="0"
       x1="0"><stop
         id="stop316"
         offset="0"
         style="stop-opacity:1;stop-color:#23398e" /><stop
         id="stop318"
         offset="0.983146"
         style="stop-opacity:1;stop-color:#263065" /><stop
         id="stop320"
         offset="1"
         style="stop-opacity:1;stop-color:#263065" /></linearGradient><clipPath
       id="clipPath332"
       clipPathUnits="userSpaceOnUse"><path
         id="path330"
         d="M 0,595.28 H 841.89 V 0 H 0 Z" /></clipPath><clipPath
       id="clipPath340"
       clipPathUnits="userSpaceOnUse"><path
         id="path338"
         d="M 194.268,469.566 H 610.419 V 409.293 H 194.268 Z" /></clipPath><clipPath
       id="clipPath344"
       clipPathUnits="userSpaceOnUse"><path
         id="path342"
         d="m 243.736,428.684 c 0,-5.698 -2.415,-10.33 -7.247,-13.891 -4.832,-3.563 -11.393,-5.343 -19.682,-5.343 -4.794,0 -8.971,0.421 -12.534,1.262 -3.561,0.842 -6.896,1.911 -10.005,3.206 v 13.874 h 1.632 c 3.082,-2.462 6.535,-4.354 10.355,-5.674 3.822,-1.321 7.494,-1.983 11.017,-1.983 0.907,0 2.1,0.078 3.575,0.234 1.477,0.156 2.683,0.414 3.614,0.777 1.141,0.466 2.08,1.049 2.818,1.75 0.739,0.699 1.108,1.735 1.108,3.108 0,1.268 -0.538,2.364 -1.613,3.284 -1.075,0.919 -2.649,1.625 -4.721,2.117 -2.177,0.518 -4.476,1.004 -6.899,1.458 -2.422,0.452 -4.695,1.03 -6.82,1.729 -4.87,1.579 -8.374,3.723 -10.51,6.431 -2.138,2.707 -3.207,6.068 -3.207,10.084 0,5.389 2.416,9.787 7.248,13.193 4.831,3.407 11.042,5.11 18.633,5.11 3.809,0 7.571,-0.369 11.289,-1.107 3.717,-0.739 6.937,-1.665 9.656,-2.779 v -13.328 h -1.593 c -2.331,1.865 -5.187,3.425 -8.568,4.682 -3.381,1.257 -6.833,1.885 -10.357,1.885 -1.243,0 -2.48,-0.085 -3.711,-0.253 -1.23,-0.169 -2.416,-0.486 -3.556,-0.952 -1.009,-0.389 -1.878,-0.978 -2.603,-1.768 -0.725,-0.79 -1.087,-1.69 -1.087,-2.701 0,-1.529 0.582,-2.701 1.748,-3.517 1.165,-0.816 3.367,-1.561 6.606,-2.234 2.124,-0.441 4.163,-0.868 6.12,-1.283 1.956,-0.413 4.061,-0.984 6.315,-1.709 4.43,-1.452 7.7,-3.426 9.812,-5.927 2.112,-2.499 3.167,-5.745 3.167,-9.735" /></clipPath><clipPath
       id="clipPath348"
       clipPathUnits="userSpaceOnUse"><path
         id="path346"
         d="M -32768,32767 H 32767 V -32768 H -32768 Z" /></clipPath><radialGradient
       id="radialGradient358"
       spreadMethod="pad"
       gradientTransform="matrix(284.7738,0,0,-139.05847,462.73242,419.1792)"
       gradientUnits="userSpaceOnUse"
       r="1"
       cy="0"
       cx="0"
       fy="0"
       fx="0"><stop
         id="stop350"
         offset="0"
         style="stop-opacity:0;stop-color:#ffffff" /><stop
         id="stop352"
         offset="0.444444"
         style="stop-opacity:0;stop-color:#ffffff" /><stop
         id="stop354"
         offset="0.88838183"
         style="stop-opacity:0;stop-color:#ffffff" /><stop
         id="stop356"
         offset="1"
         style="stop-opacity:0.54000153;stop-color:#ffffff" /></radialGradient><mask
       id="mask360"
       height="1"
       width="1"
       y="0"
       x="0"
       maskUnits="userSpaceOnUse"><g
         id="g370"><g
           id="g368"
           clip-path="url(#clipPath348)"><g
             id="g366"><g
               id="g364"><path
                 id="path362"
                 style="fill:url(#radialGradient358);stroke:none"
                 d="M -32768,32767 H 32767 V -32768 H -32768 Z" /></g></g></g></g></mask><radialGradient
       id="radialGradient380"
       spreadMethod="pad"
       gradientTransform="matrix(284.7738,0,0,-139.05847,462.73242,419.1792)"
       gradientUnits="userSpaceOnUse"
       r="1"
       cy="0"
       cx="0"
       fy="0"
       fx="0"><stop
         id="stop372"
         offset="0"
         style="stop-opacity:1;stop-color:#ffffff" /><stop
         id="stop374"
         offset="0.444444"
         style="stop-opacity:1;stop-color:#ffffff" /><stop
         id="stop376"
         offset="0.88838183"
         style="stop-opacity:1;stop-color:#ffffff" /><stop
         id="stop378"
         offset="1"
         style="stop-opacity:1;stop-color:#ffffff" /></radialGradient><clipPath
       id="clipPath384"
       clipPathUnits="userSpaceOnUse"><path
         id="path382"
         d="m 304.63,431.445 c 0,-7.15 -2.176,-12.63 -6.528,-16.438 -4.353,-3.809 -10.765,-5.714 -19.236,-5.714 -8.471,0 -14.877,1.905 -19.216,5.714 -4.34,3.808 -6.509,9.274 -6.509,16.398 v 36.956 H 268.14 V 432.26 c 0,-4.015 0.842,-7.008 2.527,-8.977 1.683,-1.969 4.416,-2.952 8.199,-2.952 3.731,0 6.457,0.945 8.179,2.836 1.723,1.891 2.585,4.922 2.585,9.093 v 36.101 h 15 z" /></clipPath><clipPath
       id="clipPath388"
       clipPathUnits="userSpaceOnUse"><path
         id="path386"
         d="M -32768,32767 H 32767 V -32768 H -32768 Z" /></clipPath><radialGradient
       id="radialGradient398"
       spreadMethod="pad"
       gradientTransform="matrix(284.7738,0,0,-139.05847,462.73242,419.1792)"
       gradientUnits="userSpaceOnUse"
       r="1"
       cy="0"
       cx="0"
       fy="0"
       fx="0"><stop
         id="stop390"
         offset="0"
         style="stop-opacity:0;stop-color:#ffffff" /><stop
         id="stop392"
         offset="0.444444"
         style="stop-opacity:0;stop-color:#ffffff" /><stop
         id="stop394"
         offset="0.88838183"
         style="stop-opacity:0;stop-color:#ffffff" /><stop
         id="stop396"
         offset="1"
         style="stop-opacity:0.54000153;stop-color:#ffffff" /></radialGradient><mask
       id="mask400"
       height="1"
       width="1"
       y="0"
       x="0"
       maskUnits="userSpaceOnUse"><g
         id="g410"><g
           id="g408"
           clip-path="url(#clipPath388)"><g
             id="g406"><g
               id="g404"><path
                 id="path402"
                 style="fill:url(#radialGradient398);stroke:none"
                 d="M -32768,32767 H 32767 V -32768 H -32768 Z" /></g></g></g></g></mask><radialGradient
       id="radialGradient420"
       spreadMethod="pad"
       gradientTransform="matrix(284.7738,0,0,-139.05847,462.73242,419.1792)"
       gradientUnits="userSpaceOnUse"
       r="1"
       cy="0"
       cx="0"
       fy="0"
       fx="0"><stop
         id="stop412"
         offset="0"
         style="stop-opacity:1;stop-color:#ffffff" /><stop
         id="stop414"
         offset="0.444444"
         style="stop-opacity:1;stop-color:#ffffff" /><stop
         id="stop416"
         offset="0.88838183"
         style="stop-opacity:1;stop-color:#ffffff" /><stop
         id="stop418"
         offset="1"
         style="stop-opacity:1;stop-color:#ffffff" /></radialGradient><clipPath
       id="clipPath424"
       clipPathUnits="userSpaceOnUse"><path
         id="path422"
         d="m 350.913,449.765 c 0,1.629 -0.442,3.031 -1.323,4.207 -0.88,1.175 -1.903,1.996 -3.069,2.461 -1.554,0.621 -3.07,0.964 -4.547,1.028 -1.476,0.064 -3.446,0.097 -5.907,0.097 h -2.565 v -17.292 h 4.275 c 2.539,0 4.63,0.154 6.277,0.464 1.644,0.311 3.023,0.932 4.138,1.861 0.958,0.827 1.652,1.817 2.079,2.966 0.428,1.15 0.642,2.553 0.642,4.208 m 15.426,0.333 c 0,-2.592 -0.452,-5.124 -1.361,-7.598 -0.906,-2.475 -2.201,-4.554 -3.885,-6.237 -2.306,-2.28 -4.876,-4.003 -7.713,-5.168 -2.837,-1.166 -6.367,-1.748 -10.59,-1.748 h -9.288 v -18.848 h -14.921 v 57.862 h 24.559 c 3.678,0 6.781,-0.318 9.307,-0.952 2.525,-0.635 4.761,-1.587 6.704,-2.856 2.33,-1.529 4.112,-3.484 5.342,-5.867 1.231,-2.385 1.846,-5.247 1.846,-8.588" /></clipPath><clipPath
       id="clipPath428"
       clipPathUnits="userSpaceOnUse"><path
         id="path426"
         d="M -32768,32767 H 32767 V -32768 H -32768 Z" /></clipPath><radialGradient
       id="radialGradient438"
       spreadMethod="pad"
       gradientTransform="matrix(284.7738,0,0,-139.05847,462.73242,419.1792)"
       gradientUnits="userSpaceOnUse"
       r="1"
       cy="0"
       cx="0"
       fy="0"
       fx="0"><stop
         id="stop430"
         offset="0"
         style="stop-opacity:0;stop-color:#ffffff" /><stop
         id="stop432"
         offset="0.444444"
         style="stop-opacity:0;stop-color:#ffffff" /><stop
         id="stop434"
         offset="0.88838183"
         style="stop-opacity:0;stop-color:#ffffff" /><stop
         id="stop436"
         offset="1"
         style="stop-opacity:0.54000153;stop-color:#ffffff" /></radialGradient><mask
       id="mask440"
       height="1"
       width="1"
       y="0"
       x="0"
       maskUnits="userSpaceOnUse"><g
         id="g450"><g
           id="g448"
           clip-path="url(#clipPath428)"><g
             id="g446"><g
               id="g444"><path
                 id="path442"
                 style="fill:url(#radialGradient438);stroke:none"
                 d="M -32768,32767 H 32767 V -32768 H -32768 Z" /></g></g></g></g></mask><radialGradient
       id="radialGradient460"
       spreadMethod="pad"
       gradientTransform="matrix(284.7738,0,0,-139.05847,462.73242,419.1792)"
       gradientUnits="userSpaceOnUse"
       r="1"
       cy="0"
       cx="0"
       fy="0"
       fx="0"><stop
         id="stop452"
         offset="0"
         style="stop-opacity:1;stop-color:#ffffff" /><stop
         id="stop454"
         offset="0.444444"
         style="stop-opacity:1;stop-color:#ffffff" /><stop
         id="stop456"
         offset="0.88838183"
         style="stop-opacity:1;stop-color:#ffffff" /><stop
         id="stop458"
         offset="1"
         style="stop-opacity:1;stop-color:#ffffff" /></radialGradient><clipPath
       id="clipPath464"
       clipPathUnits="userSpaceOnUse"><path
         id="path462"
         d="m 409.24,449.765 c 0,1.629 -0.439,3.031 -1.321,4.207 -0.881,1.175 -1.903,1.996 -3.069,2.461 -1.554,0.621 -3.072,0.964 -4.548,1.028 -1.476,0.064 -3.446,0.097 -5.906,0.097 h -2.563 v -17.292 h 4.273 c 2.539,0 4.63,0.154 6.277,0.464 1.645,0.311 3.023,0.932 4.136,1.861 0.961,0.827 1.652,1.817 2.079,2.966 0.43,1.15 0.642,2.553 0.642,4.208 m 15.429,0.333 c 0,-2.592 -0.455,-5.124 -1.36,-7.598 -0.908,-2.475 -2.203,-4.554 -3.888,-6.237 -2.305,-2.28 -4.875,-4.003 -7.713,-5.168 -2.835,-1.166 -6.368,-1.748 -10.588,-1.748 h -9.287 v -18.848 h -14.924 v 57.862 h 24.561 c 3.677,0 6.78,-0.318 9.305,-0.952 2.529,-0.635 4.762,-1.587 6.703,-2.856 2.333,-1.529 4.113,-3.484 5.345,-5.867 1.23,-2.385 1.846,-5.247 1.846,-8.588" /></clipPath><clipPath
       id="clipPath468"
       clipPathUnits="userSpaceOnUse"><path
         id="path466"
         d="M -32768,32767 H 32767 V -32768 H -32768 Z" /></clipPath><radialGradient
       id="radialGradient478"
       spreadMethod="pad"
       gradientTransform="matrix(284.7738,0,0,-139.05847,462.73242,419.1792)"
       gradientUnits="userSpaceOnUse"
       r="1"
       cy="0"
       cx="0"
       fy="0"
       fx="0"><stop
         id="stop470"
         offset="0"
         style="stop-opacity:0;stop-color:#ffffff" /><stop
         id="stop472"
         offset="0.444444"
         style="stop-opacity:0;stop-color:#ffffff" /><stop
         id="stop474"
         offset="0.88838183"
         style="stop-opacity:0;stop-color:#ffffff" /><stop
         id="stop476"
         offset="1"
         style="stop-opacity:0.54000153;stop-color:#ffffff" /></radialGradient><mask
       id="mask480"
       height="1"
       width="1"
       y="0"
       x="0"
       maskUnits="userSpaceOnUse"><g
         id="g490"><g
           id="g488"
           clip-path="url(#clipPath468)"><g
             id="g486"><g
               id="g484"><path
                 id="path482"
                 style="fill:url(#radialGradient478);stroke:none"
                 d="M -32768,32767 H 32767 V -32768 H -32768 Z" /></g></g></g></g></mask><radialGradient
       id="radialGradient500"
       spreadMethod="pad"
       gradientTransform="matrix(284.7738,0,0,-139.05847,462.73242,419.1792)"
       gradientUnits="userSpaceOnUse"
       r="1"
       cy="0"
       cx="0"
       fy="0"
       fx="0"><stop
         id="stop492"
         offset="0"
         style="stop-opacity:1;stop-color:#ffffff" /><stop
         id="stop494"
         offset="0.444444"
         style="stop-opacity:1;stop-color:#ffffff" /><stop
         id="stop496"
         offset="0.88838183"
         style="stop-opacity:1;stop-color:#ffffff" /><stop
         id="stop498"
         offset="1"
         style="stop-opacity:1;stop-color:#ffffff" /></radialGradient><clipPath
       id="clipPath504"
       clipPathUnits="userSpaceOnUse"><path
         id="path502"
         d="m 471.729,424.76 c 1.449,1.762 2.523,3.841 3.224,6.237 0.699,2.397 1.049,5.213 1.049,8.452 0,3.471 -0.4,6.425 -1.205,8.861 -0.803,2.434 -1.852,4.403 -3.149,5.906 -1.32,1.555 -2.843,2.682 -4.562,3.381 -1.727,0.699 -3.518,1.049 -5.385,1.049 -1.889,0 -3.672,-0.337 -5.344,-1.01 -1.671,-0.675 -3.205,-1.788 -4.605,-3.342 -1.295,-1.451 -2.35,-3.453 -3.166,-6.003 -0.816,-2.553 -1.225,-5.513 -1.225,-8.88 0,-3.447 0.397,-6.38 1.186,-8.802 0.789,-2.423 1.832,-4.398 3.129,-5.926 1.293,-1.529 2.812,-2.656 4.547,-3.381 1.734,-0.725 3.562,-1.089 5.478,-1.089 1.918,0 3.742,0.37 5.481,1.109 1.734,0.738 3.25,1.884 4.547,3.438 m 19.777,14.651 c 0,-9.224 -2.643,-16.549 -7.926,-21.976 -5.285,-5.428 -12.59,-8.142 -21.918,-8.142 -9.301,0 -16.594,2.714 -21.877,8.142 -5.285,5.427 -7.93,12.752 -7.93,21.976 0,9.3 2.645,16.651 7.93,22.052 5.283,5.402 12.576,8.103 21.877,8.103 9.272,0 16.568,-2.701 21.877,-8.103 5.311,-5.401 7.967,-12.752 7.967,-22.052" /></clipPath><clipPath
       id="clipPath508"
       clipPathUnits="userSpaceOnUse"><path
         id="path506"
         d="M -32768,32767 H 32767 V -32768 H -32768 Z" /></clipPath><radialGradient
       id="radialGradient518"
       spreadMethod="pad"
       gradientTransform="matrix(284.7738,0,0,-139.05847,462.73242,419.1792)"
       gradientUnits="userSpaceOnUse"
       r="1"
       cy="0"
       cx="0"
       fy="0"
       fx="0"><stop
         id="stop510"
         offset="0"
         style="stop-opacity:0;stop-color:#ffffff" /><stop
         id="stop512"
         offset="0.444444"
         style="stop-opacity:0;stop-color:#ffffff" /><stop
         id="stop514"
         offset="0.88838183"
         style="stop-opacity:0;stop-color:#ffffff" /><stop
         id="stop516"
         offset="1"
         style="stop-opacity:0.54000153;stop-color:#ffffff" /></radialGradient><mask
       id="mask520"
       height="1"
       width="1"
       y="0"
       x="0"
       maskUnits="userSpaceOnUse"><g
         id="g530"><g
           id="g528"
           clip-path="url(#clipPath508)"><g
             id="g526"><g
               id="g524"><path
                 id="path522"
                 style="fill:url(#radialGradient518);stroke:none"
                 d="M -32768,32767 H 32767 V -32768 H -32768 Z" /></g></g></g></g></mask><radialGradient
       id="radialGradient540"
       spreadMethod="pad"
       gradientTransform="matrix(284.7738,0,0,-139.05847,462.73242,419.1792)"
       gradientUnits="userSpaceOnUse"
       r="1"
       cy="0"
       cx="0"
       fy="0"
       fx="0"><stop
         id="stop532"
         offset="0"
         style="stop-opacity:1;stop-color:#ffffff" /><stop
         id="stop534"
         offset="0.444444"
         style="stop-opacity:1;stop-color:#ffffff" /><stop
         id="stop536"
         offset="0.88838183"
         style="stop-opacity:1;stop-color:#ffffff" /><stop
         id="stop538"
         offset="1"
         style="stop-opacity:1;stop-color:#ffffff" /></radialGradient><clipPath
       id="clipPath544"
       clipPathUnits="userSpaceOnUse"><path
         id="path542"
         d="m 535.342,450.641 c 0,1.451 -0.299,2.694 -0.893,3.73 -0.599,1.036 -1.623,1.853 -3.072,2.449 -1.01,0.414 -2.19,0.666 -3.535,0.757 -1.348,0.09 -2.916,0.137 -4.701,0.137 h -5.405 V 442.13 h 4.588 c 2.383,0 4.377,0.118 5.983,0.35 1.607,0.234 2.955,0.765 4.043,1.594 1.035,0.802 1.793,1.691 2.271,2.661 0.479,0.973 0.721,2.274 0.721,3.906 m 23.277,-40.142 h -18.226 l -15.743,21.217 h -6.914 v -21.217 h -14.843 v 57.862 h 25.025 c 3.42,0 6.359,-0.194 8.824,-0.582 2.459,-0.389 4.764,-1.232 6.914,-2.527 2.176,-1.295 3.906,-2.973 5.188,-5.032 1.285,-2.06 1.924,-4.643 1.924,-7.753 0,-4.274 -0.991,-7.759 -2.973,-10.453 -1.981,-2.695 -4.813,-4.935 -8.49,-6.723 z" /></clipPath><clipPath
       id="clipPath548"
       clipPathUnits="userSpaceOnUse"><path
         id="path546"
         d="M -32768,32767 H 32767 V -32768 H -32768 Z" /></clipPath><radialGradient
       id="radialGradient558"
       spreadMethod="pad"
       gradientTransform="matrix(284.7738,0,0,-139.05847,462.73242,419.1792)"
       gradientUnits="userSpaceOnUse"
       r="1"
       cy="0"
       cx="0"
       fy="0"
       fx="0"><stop
         id="stop550"
         offset="0"
         style="stop-opacity:0;stop-color:#ffffff" /><stop
         id="stop552"
         offset="0.444444"
         style="stop-opacity:0;stop-color:#ffffff" /><stop
         id="stop554"
         offset="0.88838183"
         style="stop-opacity:0;stop-color:#ffffff" /><stop
         id="stop556"
         offset="1"
         style="stop-opacity:0.54000153;stop-color:#ffffff" /></radialGradient><mask
       id="mask560"
       height="1"
       width="1"
       y="0"
       x="0"
       maskUnits="userSpaceOnUse"><g
         id="g570"><g
           id="g568"
           clip-path="url(#clipPath548)"><g
             id="g566"><g
               id="g564"><path
                 id="path562"
                 style="fill:url(#radialGradient558);stroke:none"
                 d="M -32768,32767 H 32767 V -32768 H -32768 Z" /></g></g></g></g></mask><radialGradient
       id="radialGradient580"
       spreadMethod="pad"
       gradientTransform="matrix(284.7738,0,0,-139.05847,462.73242,419.1792)"
       gradientUnits="userSpaceOnUse"
       r="1"
       cy="0"
       cx="0"
       fy="0"
       fx="0"><stop
         id="stop572"
         offset="0"
         style="stop-opacity:1;stop-color:#ffffff" /><stop
         id="stop574"
         offset="0.444444"
         style="stop-opacity:1;stop-color:#ffffff" /><stop
         id="stop576"
         offset="0.88838183"
         style="stop-opacity:1;stop-color:#ffffff" /><stop
         id="stop578"
         offset="1"
         style="stop-opacity:1;stop-color:#ffffff" /></radialGradient><clipPath
       id="clipPath584"
       clipPathUnits="userSpaceOnUse"><path
         id="path582"
         d="M 610.418,457.169 H 592.35 v -46.67 h -14.922 v 46.67 h -18.071 v 11.192 h 51.061 z" /></clipPath><clipPath
       id="clipPath588"
       clipPathUnits="userSpaceOnUse"><path
         id="path586"
         d="M -32768,32767 H 32767 V -32768 H -32768 Z" /></clipPath><radialGradient
       id="radialGradient598"
       spreadMethod="pad"
       gradientTransform="matrix(284.7738,0,0,-139.05847,462.73242,419.1792)"
       gradientUnits="userSpaceOnUse"
       r="1"
       cy="0"
       cx="0"
       fy="0"
       fx="0"><stop
         id="stop590"
         offset="0"
         style="stop-opacity:0;stop-color:#ffffff" /><stop
         id="stop592"
         offset="0.444444"
         style="stop-opacity:0;stop-color:#ffffff" /><stop
         id="stop594"
         offset="0.88838183"
         style="stop-opacity:0;stop-color:#ffffff" /><stop
         id="stop596"
         offset="1"
         style="stop-opacity:0.54000153;stop-color:#ffffff" /></radialGradient><mask
       id="mask600"
       height="1"
       width="1"
       y="0"
       x="0"
       maskUnits="userSpaceOnUse"><g
         id="g610"><g
           id="g608"
           clip-path="url(#clipPath588)"><g
             id="g606"><g
               id="g604"><path
                 id="path602"
                 style="fill:url(#radialGradient598);stroke:none"
                 d="M -32768,32767 H 32767 V -32768 H -32768 Z" /></g></g></g></g></mask><radialGradient
       id="radialGradient620"
       spreadMethod="pad"
       gradientTransform="matrix(284.7738,0,0,-139.05847,462.73242,419.1792)"
       gradientUnits="userSpaceOnUse"
       r="1"
       cy="0"
       cx="0"
       fy="0"
       fx="0"><stop
         id="stop612"
         offset="0"
         style="stop-opacity:1;stop-color:#ffffff" /><stop
         id="stop614"
         offset="0.444444"
         style="stop-opacity:1;stop-color:#ffffff" /><stop
         id="stop616"
         offset="0.88838183"
         style="stop-opacity:1;stop-color:#ffffff" /><stop
         id="stop618"
         offset="1"
         style="stop-opacity:1;stop-color:#ffffff" /></radialGradient><clipPath
       id="clipPath730"
       clipPathUnits="userSpaceOnUse"><path
         id="path728"
         d="M 195.46,468.622 H 609.221 V 410.244 H 195.46 Z" /></clipPath><clipPath
       id="clipPath814"
       clipPathUnits="userSpaceOnUse"><path
         id="path812"
         d="M 194.247,470.171 H 610.426 V 408.593 H 194.247 Z" /></clipPath></defs><g
     transform="matrix(1.3333333,0,0,-1.3333333,-134.23853,458.55732)"
     id="g10"><g
       id="g12"><g
         clip-path="url(#clipPath18)"
         id="g14"><g
           transform="translate(221.3989,218.8848)"
           id="g20"><path
             id="path22"
             style="fill:#00628a;fill-opacity:1;fill-rule:nonzero;stroke:none"
             d="m 0,0 c -0.676,-7.061 -16.7,-12.713 -36.377,-12.713 -19.715,0 -35.762,5.672 -36.38,12.754 -28.365,-4.913 -47.963,-16.668 -47.963,-67.624 H 47.731 C 47.731,-16.684 28.24,-4.937 0,0" /></g><g
           transform="translate(185.022,206.1719)"
           id="g24"><path
             id="path26"
             style="fill:#efe2d3;fill-opacity:1;fill-rule:nonzero;stroke:none"
             d="m 0,0 c 19.677,0 35.701,5.652 36.377,12.713 -5.29,0.926 -13.797,1.61 -19.629,2.074 v 6.787 c 10.299,0.967 31.798,29.054 31.682,56.036 -0.025,5.905 -0.856,11.587 -2.435,16.905 -6.386,21.506 -24.617,37.032 -46.113,37.032 -24.271,0 -44.381,-19.79 -47.974,-45.638 -0.376,-2.704 -0.867,-5.493 -0.572,-8.299 3.239,-30.798 20.923,-52.99 30.962,-55.568 V 14.729 C -23.191,14.273 -31.377,13.619 -36.38,12.754 -35.762,5.672 -19.715,0 0,0" /></g><g
           transform="translate(132.8794,284.75)"
           id="g28"><path
             id="path30"
             style="fill:none;stroke:#1d1d1b;stroke-width:2.32999992;stroke-linecap:butt;stroke-linejoin:miter;stroke-miterlimit:10;stroke-dasharray:none;stroke-opacity:1"
             d="M 0,0 C 0,32.034 23.373,58.003 52.205,58.003 81.037,58.003 104.411,32.034 104.411,0" /></g><g
           transform="translate(135.4966,271.6934)"
           id="g32"><path
             id="path34"
             style="fill:#1d1d1b;fill-opacity:1;fill-rule:nonzero;stroke:none"
             d="m 0,0 c 0,-1.522 -1.235,-2.758 -2.758,-2.758 h -1.291 c -1.523,0 -2.758,1.236 -2.758,2.758 v 22.111 c 0,1.524 1.235,2.76 2.758,2.76 h 1.291 C -1.235,24.871 0,23.635 0,22.111 Z" /></g><g
           transform="translate(240.8623,271.6934)"
           id="g36"><path
             id="path38"
             style="fill:#1d1d1b;fill-opacity:1;fill-rule:nonzero;stroke:none"
             d="m 0,0 c 0,-1.522 -1.235,-2.758 -2.758,-2.758 h -1.291 c -1.523,0 -2.758,1.236 -2.758,2.758 v 22.111 c 0,1.524 1.235,2.76 2.758,2.76 h 1.291 C -1.235,24.871 0,23.635 0,22.111 Z" /></g><g
           transform="translate(236.1489,274.791)"
           id="g40"><path
             id="path42"
             style="fill:none;stroke:#1d1d1b;stroke-width:1.16499996;stroke-linecap:butt;stroke-linejoin:miter;stroke-miterlimit:10;stroke-dasharray:none;stroke-opacity:1"
             d="M 0,0 C 0,-13.316 -19.945,-24.092 -44.593,-24.092" /></g><g
           transform="translate(200.9082,248.8848)"
           id="g44"><path
             id="path46"
             style="fill:#1d1d1b;fill-opacity:1;fill-rule:nonzero;stroke:none"
             d="m 0,0 c 0,-1.567 -1.271,-2.839 -2.839,-2.839 h -15.757 c -1.568,0 -2.839,1.272 -2.839,2.839 v 1.742 c 0,1.568 1.271,2.839 2.839,2.839 H -2.839 C -1.271,4.581 0,3.31 0,1.742 Z" /></g><g
           transform="translate(171.7886,282.3418)"
           id="g48"><path
             id="path50"
             style="fill:#1d1d1b;fill-opacity:1;fill-rule:nonzero;stroke:none"
             d="m 0,0 c 0,-3.375 -2.338,-6.111 -5.219,-6.111 -2.883,0 -5.219,2.736 -5.219,6.111 0,3.376 2.336,6.115 5.219,6.115 C -2.338,6.115 0,3.376 0,0" /></g><g
           transform="translate(210.2578,282.3418)"
           id="g52"><path
             id="path54"
             style="fill:#1d1d1b;fill-opacity:1;fill-rule:nonzero;stroke:none"
             d="m 0,0 c 0,-3.375 -2.337,-6.111 -5.221,-6.111 -2.883,0 -5.217,2.736 -5.217,6.111 0,3.376 2.334,6.115 5.217,6.115 C -2.337,6.115 0,3.376 0,0" /></g><g
           transform="translate(163.4648,318.8901)"
           id="g56"><path
             id="path58"
             style="fill:#935f36;fill-opacity:1;fill-rule:nonzero;stroke:none"
             d="M 0,0 C -0.207,0.635 -0.316,1.277 -0.316,1.928 -0.316,1.277 -0.207,0.635 0,0 0.028,0.519 0.043,1.042 0.043,1.568 0.043,1.042 0.028,0.519 0,0 c 1.768,-5.444 20.941,-14.901 34.566,-18.207 3.683,-0.894 -8.99,7.551 -8.99,7.551 0,0 30.782,-7.492 41.976,-7.548 -6.386,21.507 -24.617,37.033 -46.113,37.033 -24.271,0 -44.381,-19.79 -47.974,-45.638 C -12.255,-26.232 -0.772,-14.593 0,0" /></g><g
           transform="translate(166.6221,286.9717)"
           id="g60"><path
             id="path62"
             style="fill:#ffffff;fill-opacity:1;fill-rule:nonzero;stroke:none"
             d="M 0,0 C 0,0 0.1,-0.013 0.274,-0.036 0.36,-0.052 0.465,-0.069 0.585,-0.091 0.705,-0.118 0.843,-0.114 0.981,-0.19 1.248,-0.331 1.642,-0.414 1.933,-0.676 2.26,-0.894 2.558,-1.187 2.829,-1.514 2.976,-1.666 3.045,-1.877 3.15,-2.053 3.252,-2.233 3.344,-2.415 3.387,-2.612 3.528,-2.987 3.532,-3.361 3.52,-3.674 3.552,-3.985 3.399,-4.233 3.37,-4.402 3.318,-4.571 3.279,-4.661 3.279,-4.661 c 0,0 -0.007,0.1 -0.02,0.278 C 3.242,-4.21 3.275,-3.971 3.192,-3.692 3.164,-3.555 3.133,-3.405 3.1,-3.25 3.046,-3.098 2.963,-2.948 2.912,-2.785 2.868,-2.619 2.775,-2.467 2.674,-2.314 2.57,-2.167 2.505,-1.99 2.366,-1.865 c -0.217,0.299 -0.461,0.576 -0.742,0.79 -0.249,0.257 -0.532,0.4 -0.76,0.58 -0.111,0.091 -0.249,0.136 -0.35,0.201 -0.107,0.059 -0.2,0.109 -0.277,0.151 C 0.086,-0.052 0,0 0,0" /></g><g
           transform="translate(205.1206,286.9717)"
           id="g64"><path
             id="path66"
             style="fill:#ffffff;fill-opacity:1;fill-rule:nonzero;stroke:none"
             d="M 0,0 C 0,0 0.1,-0.013 0.274,-0.036 0.36,-0.052 0.465,-0.069 0.587,-0.091 0.706,-0.118 0.844,-0.114 0.983,-0.19 1.249,-0.331 1.642,-0.414 1.933,-0.676 2.26,-0.894 2.559,-1.187 2.83,-1.514 2.977,-1.666 3.046,-1.877 3.151,-2.054 3.254,-2.233 3.345,-2.417 3.387,-2.612 3.528,-2.987 3.531,-3.361 3.52,-3.674 3.553,-3.985 3.4,-4.233 3.37,-4.402 3.317,-4.571 3.279,-4.661 3.279,-4.661 c 0,0 -0.006,0.1 -0.02,0.278 -0.016,0.173 0.017,0.412 -0.066,0.691 -0.028,0.137 -0.058,0.285 -0.091,0.442 -0.056,0.152 -0.139,0.302 -0.189,0.465 -0.044,0.166 -0.138,0.318 -0.238,0.471 -0.105,0.147 -0.169,0.324 -0.31,0.449 -0.216,0.299 -0.46,0.576 -0.74,0.79 -0.249,0.257 -0.531,0.4 -0.761,0.58 -0.111,0.091 -0.249,0.136 -0.349,0.201 -0.108,0.059 -0.2,0.109 -0.277,0.151 C 0.085,-0.052 0,0 0,0" /></g><g
           transform="translate(255.1348,129.5879)"
           id="g68"><path
             id="path70"
             style="fill:#b2b2b2;fill-opacity:1;fill-rule:nonzero;stroke:none"
             d="m 0,0 c 0,-1.104 -3.491,-6.013 -7.8,-6.013 h -125.829 c -4.308,0 -7.8,4.909 -7.8,6.013 l -5.877,14.994 c 0,1.104 -0.162,4.474 4.144,4.474 H 1.732 c 4.31,0 4.682,-2.08 4.732,-2.999 C 6.514,15.549 0,0 0,0" /></g></g></g><g
       id="g72"><g
         clip-path="url(#clipPath78)"
         id="g74"><g
           id="g80"><g
             id="g82"><path
               id="path90"
               style="fill:url(#linearGradient88);stroke:none"
               d="m 123.1,208.113 c -3.674,0 -6.653,-2.98 -6.653,-6.653 v 0 -71.451 c 0,-3.675 2.979,-6.654 6.653,-6.654 v 0 h 123.61 c 3.675,0 6.653,2.979 6.653,6.654 v 0 71.451 c 0,3.673 -2.978,6.653 -6.653,6.653 v 0 z" /></g></g></g></g><g
       transform="translate(253.3638,130.0088)"
       id="g100"><path
         id="path102"
         style="fill:none;stroke:#696868;stroke-width:0.70899999;stroke-linecap:butt;stroke-linejoin:miter;stroke-miterlimit:10;stroke-dasharray:none;stroke-opacity:1"
         d="m 0,0 c 0,-3.675 -2.979,-6.654 -6.654,-6.654 h -123.61 c -3.673,0 -6.653,2.979 -6.653,6.654 v 71.451 c 0,3.674 2.98,6.653 6.653,6.653 H -6.654 C -2.979,78.104 0,75.125 0,71.451 Z" /></g><g
       transform="translate(191.1748,171.6875)"
       id="g104"><path
         id="path106"
         style="fill:#696868;fill-opacity:1;fill-rule:nonzero;stroke:none"
         d="m 0,0 c 0,-3.462 -2.807,-6.271 -6.27,-6.271 -3.463,0 -6.27,2.809 -6.27,6.271 0,3.465 2.807,6.27 6.27,6.27 C -2.807,6.27 0,3.465 0,0" /></g></g></svg>