<?xml version="1.0" encoding="UTF-8" standalone="no"?>
<!-- Created with Inkscape (http://www.inkscape.org/) -->

<svg
   width="88.687981mm"
   height="123.94084mm"
   viewBox="0 0 88.687981 123.94084"
   version="1.1"
   id="svg968"
   inkscape:version="1.1.2 (0a00cf5339, 2022-02-04)"
   sodipodi:docname="cert.svg"
   xmlns:inkscape="http://www.inkscape.org/namespaces/inkscape"
   xmlns:sodipodi="http://sodipodi.sourceforge.net/DTD/sodipodi-0.dtd"
   xmlns="http://www.w3.org/2000/svg"
   xmlns:svg="http://www.w3.org/2000/svg">
  <sodipodi:namedview
     id="namedview970"
     pagecolor="#ffffff"
     bordercolor="#666666"
     borderopacity="1.0"
     inkscape:pageshadow="2"
     inkscape:pageopacity="0.0"
     inkscape:pagecheckerboard="0"
     inkscape:document-units="mm"
     showgrid="false"
     inkscape:zoom="0.57370932"
     inkscape:cx="302.41796"
     inkscape:cy="505.48247"
     inkscape:window-width="3840"
     inkscape:window-height="2063"
     inkscape:window-x="0"
     inkscape:window-y="0"
     inkscape:window-maximized="1"
     inkscape:current-layer="layer1" />
  <defs
     id="defs965" />
  <g
     inkscape:label="Taso 1"
     inkscape:groupmode="layer"
     id="layer1"
     transform="translate(-24.763019,-14.972406)">
    <g
       id="g10"
       transform="matrix(0.35277777,0,0,-0.35277777,62.610422,105.58136)">
      <path
         d="m 0,0 -34.147,-94.484 -20.699,29.749 -34.986,-9.637 34.861,96.327 -0.084,-2.472 9.637,4.442 0.628,-10.601 9.219,5.321 1.592,-10.517 8.714,6.117 2.515,-10.349 8.129,6.872 3.434,-10.056 7.459,7.584 z"
         style="fill:#8ac43d;fill-opacity:1;fill-rule:nonzero;stroke:none"
         id="path12" />
    </g>
    <g
       id="g14"
       transform="matrix(0.35277777,0,0,-0.35277777,107.29435,131.81818)">
      <path
         d="m 0,0 -34.943,9.637 -20.699,-29.749 -34.023,94.148 3.854,8.632 7.46,-7.584 3.435,10.056 8.128,-6.871 2.515,10.348 8.715,-6.117 1.592,10.517 9.219,-5.321 0.628,10.601 9.636,-4.442 -0.041,1.676 z"
         style="fill:#8ac43d;fill-opacity:1;fill-rule:nonzero;stroke:none"
         id="path16" />
    </g>
    <g
       id="g18"
       transform="matrix(0.35277777,0,0,-0.35277777,69.106832,17.883881)">
      <path
         d="m 0,0 5.64,8.253 4.877,-8.726 6.356,7.715 4.075,-9.128 7.024,7.114 3.24,-9.456 7.632,6.456 2.38,-9.709 8.179,5.746 1.5,-9.884 8.662,4.99 0.609,-9.978 9.074,4.193 -0.289,-9.992 9.414,3.362 -1.184,-9.926 9.677,2.505 -2.067,-9.78 9.862,1.628 -2.936,-9.555 9.968,0.736 -3.781,-9.253 9.995,-0.16 -4.595,-8.877 9.94,-1.055 -5.373,-8.429 9.806,-1.942 -6.107,-7.914 9.592,-2.813 -6.791,-7.335 9.301,-3.661 -7.422,-6.696 8.936,-4.481 -7.992,-6.004 8.498,-5.264 -8.498,-5.263 7.992,-6.004 -8.936,-4.481 7.422,-6.696 -9.301,-3.661 6.791,-7.335 -9.592,-2.814 6.107,-7.913 -9.806,-1.942 5.373,-8.43 -9.94,-1.055 4.595,-8.877 -9.995,-0.16 3.781,-9.253 -9.968,0.737 2.936,-9.555 -9.862,1.627 2.067,-9.779 -9.677,2.505 1.184,-9.926 -9.414,3.362 0.289,-9.992 -9.074,4.192 -0.609,-9.977 -8.662,4.989 -1.5,-9.883 -8.179,5.745 -2.38,-9.708 -7.632,6.455 -3.24,-9.456 -7.024,7.115 -4.075,-9.128 -6.356,7.714 -4.877,-8.725 -5.64,8.253 -5.639,-8.253 -4.877,8.725 -6.357,-7.714 -4.074,9.128 -7.024,-7.115 -3.24,9.456 -7.632,-6.455 -2.38,9.708 -8.179,-5.745 -1.5,9.883 -8.662,-4.989 -0.609,9.977 -9.074,-4.192 0.289,9.992 -9.414,-3.362 1.184,9.926 -9.677,-2.505 2.067,9.779 -9.862,-1.627 2.936,9.555 -9.968,-0.737 3.781,9.253 -9.995,0.16 4.595,8.877 -9.94,1.055 5.373,8.43 -9.806,1.942 6.107,7.913 -9.592,2.814 6.791,7.335 -9.301,3.661 7.422,6.696 -8.936,4.481 7.992,6.004 -8.498,5.263 8.498,5.264 -7.992,6.004 8.936,4.481 -7.422,6.696 9.301,3.661 -6.791,7.335 9.592,2.813 -6.107,7.914 9.806,1.942 -5.373,8.429 9.94,1.055 -4.595,8.877 9.995,0.16 -3.781,9.253 9.968,-0.736 -2.936,9.555 9.862,-1.628 -2.067,9.78 9.677,-2.505 -1.184,9.926 9.414,-3.362 -0.289,9.992 9.074,-4.193 0.609,9.978 8.662,-4.99 1.5,9.884 8.179,-5.746 2.38,9.709 7.632,-6.456 3.24,9.456 7.024,-7.114 4.074,9.128 6.357,-7.715 4.877,8.726 z"
         style="fill:#8ac43d;fill-opacity:1;fill-rule:nonzero;stroke:none"
         id="path20" />
    </g>
  </g>
</svg>
