<?xml version="1.0" encoding="UTF-8" standalone="no"?>
<!-- Created with Inkscape (http://www.inkscape.org/) -->

<svg
   width="88.687981mm"
   height="123.94084mm"
   viewBox="0 0 88.687981 123.94084"
   version="1.1"
   id="svg968"
   inkscape:version="1.1.2 (0a00cf5339, 2022-02-04)"
   sodipodi:docname="cert-yellow.svg"
   xmlns:inkscape="http://www.inkscape.org/namespaces/inkscape"
   xmlns:sodipodi="http://sodipodi.sourceforge.net/DTD/sodipodi-0.dtd"
   xmlns="http://www.w3.org/2000/svg"
   xmlns:svg="http://www.w3.org/2000/svg">
  <sodipodi:namedview
     id="namedview970"
     pagecolor="#ffffff"
     bordercolor="#666666"
     borderopacity="1.0"
     inkscape:pageshadow="2"
     inkscape:pageopacity="0.0"
     inkscape:pagecheckerboard="0"
     inkscape:document-units="mm"
     showgrid="false"
     inkscape:zoom="0.57370932"
     inkscape:cx="302.41796"
     inkscape:cy="505.48246"
     inkscape:window-width="3840"
     inkscape:window-height="2063"
     inkscape:window-x="0"
     inkscape:window-y="0"
     inkscape:window-maximized="1"
     inkscape:current-layer="layer1" />
  <defs
     id="defs965" />
  <g
     inkscape:label="Taso 1"
     inkscape:groupmode="layer"
     id="layer1"
     transform="translate(-24.763019,-14.972406)">
    <path
       d="m 62.610422,105.58136 -12.046303,33.33185 -7.302147,-10.49478 -12.342283,3.39972 12.298186,-33.982026 -0.02963,0.872067 3.399719,-1.567039 0.221545,3.739798 3.252258,-1.877132 0.561622,3.710162 3.074106,-2.15794 0.887236,3.6509 2.86773,-2.42429 1.211439,3.54753 2.631369,-2.67546 z"
       style="fill:#e1eb1f;fill-opacity:1;fill-rule:nonzero;stroke:none;stroke-width:0.352778"
       id="path12" />
    <path
       d="m 107.29435,131.81818 -12.327114,-3.39972 -7.302147,10.49479 -12.002558,-33.21332 1.359606,-3.04518 2.631722,2.67546 1.211792,-3.54753 2.867377,2.42394 0.887236,-3.65055 3.074459,2.15794 0.561622,-3.71016 3.252258,1.87713 0.221545,-3.739796 3.399366,1.567038 -0.01446,-0.591255 z"
       style="fill:#e1eb1f;fill-opacity:1;fill-rule:nonzero;stroke:none;stroke-width:0.352778"
       id="path16" />
    <path
       d="m 69.106832,17.883881 1.989667,-2.911475 1.720497,3.078339 2.242255,-2.721681 1.43757,3.220156 2.477911,-2.509661 1.143,3.335866 2.6924,-2.277533 0.839611,3.425119 2.885369,-2.027061 0.529167,3.486856 3.055761,-1.760361 0.214842,3.520016 3.201105,-1.479197 -0.101953,3.524956 3.32105,-1.186039 -0.417689,3.501672 3.413831,-0.883708 -0.729192,3.450166 3.479096,-0.574322 -1.03576,3.370792 3.51649,-0.259645 -1.33385,3.264253 3.52601,0.05644 -1.62101,3.131609 3.50661,0.37218 -1.89547,2.973564 3.45933,0.685094 -2.15441,2.791884 3.38384,0.992364 -2.39571,2.587625 3.28119,1.291519 -2.61832,2.3622 3.15242,1.580797 -2.8194,2.118078 2.99791,1.857022 -2.99791,1.856669 2.8194,2.118078 -3.15242,1.580797 2.61832,2.3622 -3.28119,1.29152 2.39571,2.587625 -3.38384,0.992716 2.15441,2.791531 -3.45933,0.685094 1.89547,2.973917 -3.50661,0.37218 1.62101,3.131609 -3.52601,0.05644 1.33385,3.264253 -3.51649,-0.259997 1.03576,3.370791 -3.479096,-0.573969 0.729192,3.449813 -3.413831,-0.883708 0.417689,3.501672 -3.32105,-1.186039 0.101953,3.524956 -3.201105,-1.478844 -0.214842,3.519663 -3.055761,-1.760008 -0.529167,3.486496 -2.885369,-2.026702 -0.839611,3.424762 -2.6924,-2.277175 -1.143,3.335865 -2.477911,-2.510013 -1.43757,3.220153 -2.242255,-2.72133 -1.720497,3.07799 -1.989667,-2.91148 -1.989314,2.91148 -1.720497,-3.07799 -2.242608,2.72133 -1.437217,-3.220153 -2.477911,2.510013 -1.143,-3.335865 -2.6924,2.277175 -0.839611,-3.424762 -2.885369,2.026702 -0.529167,-3.486496 -3.055761,1.760008 -0.214842,-3.519663 -3.201105,1.478844 0.101953,-3.524956 -3.32105,1.186039 0.417688,-3.501672 -3.41383,0.883708 0.729192,-3.449813 -3.479095,0.573969 1.035756,-3.370791 -3.516489,0.259997 1.333853,-3.264253 -3.526014,-0.05644 1.621014,-3.131609 -3.506611,-0.37218 1.895475,-2.973917 -3.459339,-0.685094 2.154414,-2.791531 -3.383845,-0.992716 2.395714,-2.587625 -3.281186,-1.29152 2.618317,-2.3622 -3.152422,-1.580797 2.8194,-2.118078 -2.997906,-1.856669 2.997906,-1.857022 -2.8194,-2.118078 3.152422,-1.580797 -2.618317,-2.3622 3.281186,-1.291519 -2.395714,-2.587625 3.383845,-0.992364 -2.154414,-2.791884 3.459339,-0.685094 -1.895475,-2.973564 3.506611,-0.37218 -1.621014,-3.131609 3.526014,-0.05644 -1.333853,-3.264253 3.516489,0.259645 -1.035756,-3.370792 3.479095,0.574322 -0.729192,-3.450166 3.41383,0.883708 -0.417688,-3.501672 3.32105,1.186039 -0.101953,-3.524956 3.201105,1.479197 0.214842,-3.520016 3.055761,1.760361 0.529167,-3.486856 2.885369,2.027061 0.839611,-3.425119 2.6924,2.277533 1.143,-3.335866 2.477911,2.509661 1.437217,-3.220156 2.242608,2.721681 1.720497,-3.078339 z"
       style="fill:#e1eb1f;fill-opacity:1;fill-rule:nonzero;stroke:none;stroke-width:0.352778"
       id="path20" />
  </g>
</svg>
