<?xml version="1.0" encoding="UTF-8"?>
<svg viewBox="0 0 48 48" xmlns="http://www.w3.org/2000/svg">
 <defs>
  <radialGradient id="a" cx="17.312" cy="25.531" r="9.6875" gradientTransform="matrix(1 0 0 .35161 1.2928e-15 16.554)" gradientUnits="userSpaceOnUse">
   <stop offset="0"/>
   <stop stop-opacity="0" offset="1"/>
  </radialGradient>
 </defs>
 <path transform="matrix(2.1829 0 0 2.1829 -13.504 -14.35)" d="m27 25.531a9.6875 3.4062 0 1 1 -19.375 0 9.6875 3.4062 0 1 1 19.375 0z" fill="url(#a)" opacity=".40909"/>
 <path transform="matrix(.94463 0 0 .98005 1.5042 -1.5569)" d="m46.139 23.428a22.009 21.213 0 1 1 -44.017 0 22.009 21.213 0 1 1 44.017 0z" fill="#f57900" stroke="#914900" stroke-linecap="round" stroke-linejoin="round" stroke-width=".98215"/>
 <path transform="matrix(.91409 0 0 .94836 2.3806 -.90582)" d="m46.139 23.428a22.009 21.213 0 1 1 -44.017 0 22.009 21.213 0 1 1 44.017 0z" fill="none" stroke="#fcaf3e" stroke-linecap="round" stroke-linejoin="round" stroke-width=".98215"/>
 <path d="m21.46493,10.37327c-.12797,0-.23461.17449-.23461.38391l1.06477,14.44082c0,.20941.10664.38391.23461.38391 0,0 .84082.0119 1.53399,0 .22834-.00392.29821.02031.50531,0 .69317.0119 1.53399,0 1.53399,0 .12797,0 .23461-.1745.23461-.38391l1.06477-14.44082c0-.20941-.10664-.35438-.23461-.35438h-2.58071c-.00951-.00194-.0082-.02953-.01805-.02953h-3.10407z" fill="#fff"/>
 <path transform="matrix(.50486 0 0 .60418 32.659 9.6088)" d="m-11.875 34.062a4.5625 3.8125 0 1 1 -9.125 0 4.5625 3.8125 0 1 1 9.125 0z" fill="#fff"/>
 <path d="m43.676 20.477c0 10.831-6.0522-4.3062-18.675 0.38639-12.723 4.7297-20.567 10.444-20.567-0.38639s8.7901-19.621 19.621-19.621 19.621 8.7901 19.621 19.621z" fill="#fffeff" fill-opacity=".2139"/>
</svg>
