<?xml version="1.0" encoding="UTF-8"?>
<svg version="1.1" viewBox="0 0 1000 1000" xmlns="http://www.w3.org/2000/svg">
 <g transform="translate(0 -52.362)">
  <circle cx="500" cy="552.36" r="443.92" fill="#409fe2"/>
  <path d="m506 280.24a30 30 0 0 0 -30 30 30 30 0 0 0 0.086 2.2226c-96.702 14.445-171.46 97.794-171.46 198.02v159.87l-46.455 44.461a30.003 30.003 0 0 0 20.742 51.674h454.18a30.003 30.003 0 0 0 20.738 -51.678l-46.471-44.461v-159.87c0-100.22-74.767-183.57-171.47-198.02a30 30 0 0 0 0.1114 -2.2226 30 30 0 0 0 -30 -30zm-0.01 90.002c78.538 2.8e-4 141.37 62.539 141.37 140.24v172.68a30.003 30.003 0 0 0 9.2597 21.678l1.7188 1.6445h-304.7l1.7226-1.6484a30.003 30.003 0 0 0 9.2559 -21.674v-172.68c0-77.698 62.831-140.24 141.37-140.24zm-59.99 406.24a60 60 0 0 0 60 60 60 60 0 0 0 60 -60h-120z" color="#000000" color-rendering="auto" fill-opacity=".13333" image-rendering="auto" shape-rendering="auto" solid-color="#000000" style="block-progression:tb;isolation:auto;mix-blend-mode:normal;text-decoration-color:#000000;text-decoration-line:none;text-decoration-style:solid;text-indent:0;text-transform:none;white-space:normal"/>
  <path d="m500 274.24a30 30 0 0 0 -30 30 30 30 0 0 0 0.0859 2.2226c-96.702 14.445-171.46 97.794-171.46 198.02v159.87l-46.455 44.461a30.003 30.003 0 0 0 20.742 51.674h454.18a30.003 30.003 0 0 0 20.738 -51.678l-46.471-44.461v-159.87c0-100.22-74.767-183.57-171.47-198.02a30 30 0 0 0 0.11133 -2.2226 30 30 0 0 0 -30 -30zm-0.01 90.002c78.538 2.8e-4 141.37 62.539 141.37 140.24v172.68a30.003 30.003 0 0 0 9.2598 21.678l1.7188 1.6445h-304.7l1.7226-1.6484a30.003 30.003 0 0 0 9.2559 -21.674v-172.68c0-77.698 62.831-140.24 141.37-140.24zm-59.99 406.24a60 60 0 0 0 60 60 60 60 0 0 0 60 -60h-120z" color="#000000" color-rendering="auto" fill="#e4ff1e" image-rendering="auto" shape-rendering="auto" solid-color="#000000" style="block-progression:tb;isolation:auto;mix-blend-mode:normal;text-decoration-color:#000000;text-decoration-line:none;text-decoration-style:solid;text-indent:0;text-transform:none;white-space:normal"/>
 </g>
</svg>
