<?xml version="1.0" encoding="UTF-8"?>
<svg viewBox="0 0 269.97086 269.97086" xmlns="http://www.w3.org/2000/svg">
 <path transform="matrix(.99127 -.13184 .13184 .99127 -233.98 -171.6)" d="m443.36 420.7-82.757 63.502-103.42-13.616-63.502-82.757 13.616-103.42 82.757-63.502 103.42 13.616 63.502 82.757z" fill="#e80808"/>
 <path transform="matrix(.99127 -.13184 .13184 .99127 -234 -171.61)" d="m291.31 225.59-79.812 61.25-13.125 99.719 61.25 79.844 99.719 13.094 79.844-61.25 13.094-99.719-61.25-79.812-99.719-13.125z" fill="#fff"/>
 <path transform="matrix(.99127 -.13184 .13184 .99127 -234 -171.61)" d="m292.44 229.84-77.125 59.188-12.688 96.406 59.188 77.156 96.406 12.656 77.156-59.188 12.656-96.406-59.188-77.125-96.406-12.688z" fill="#e80808"/>
 <g transform="translate(-154.45 -112.94)" fill="#fff" font-family="Impact" font-size="102.6" font-stretch="condensed" letter-spacing="0" word-spacing="0">
  <path d="m345.84 207.37h21.242c5.7446 8e-5 10.153 0.451 13.226 1.3527 3.1061 0.9019 5.4273 2.2044 6.9637 3.9077 1.5697 1.7034 2.6218 3.7742 3.1562 6.2123 0.5677 2.4048 0.8516 6.1455 0.8517 11.222v7.0639c-5e-5 5.1769-0.5344 8.951-1.6032 11.322s-3.0394 4.1916-5.9116 5.4608c-2.839 1.2692-6.563 1.9038-11.172 1.9038h-5.6612v32.664h-21.092v-81.11m21.092 13.877v20.641c0.6012 0.0334 1.1188 0.0502 1.5531 0.0501 1.9371 5e-5 3.2731-0.4675 4.0079-1.4028 0.7682-0.9685 1.1522-2.9558 1.1523-5.9618v-6.6631c-3e-5 -2.7721-0.4342-4.5756-1.3026-5.4107-0.8684-0.8349-2.672-1.2524-5.4107-1.2525m-29.007 33.616c-5e-5 8.1494-0.2004 13.928-0.6012 17.334-0.3675 3.3733-1.5698 6.4627-3.6071 9.2683-2.004 2.8055-4.726 4.9598-8.1661 6.4627s-7.4481 2.2544-12.024 2.2544c-4.3419 0-8.2496-0.7014-11.723-2.1042-3.4401-1.4362-6.2123-3.5737-8.3164-6.4126s-3.3566-5.9283-3.7574-9.2683-0.6012-9.1847-0.6012-17.535v-13.877c0-8.1494 0.1837-13.911 0.5511-17.284 0.4008-3.4067 1.6032-6.5128 3.6071-9.3184 2.0373-2.8055 4.7761-4.9597 8.2162-6.4627s7.448-2.2544 12.024-2.2544c4.3419 9e-5 8.2329 0.7182 11.673 2.1543 3.4735 1.4028 6.2623 3.5237 8.3665 6.3625s3.3566 5.9284 3.7574 9.2683 0.6011 9.1848 0.6012 17.535v13.877m-21.092-26.652c-3e-5 -3.774-0.2171-6.1788-0.6513-7.2142-0.4008-1.0687-1.2525-1.6031-2.555-1.6032-1.1022 7e-5 -1.9539 0.4343-2.555 1.3026-0.5678 0.835-0.8517 3.34-0.8517 7.5148v37.875c-3e-5 4.7093 0.1837 7.615 0.5511 8.7172 0.4008 1.1022 1.3025 1.6533 2.7053 1.6533 1.4361 1e-5 2.3546-0.6346 2.7554-1.9038s0.6011-4.2918 0.6012-9.0679v-37.274m-31.913-20.841v16.232h-12.525v64.878h-21.092v-64.878h-12.475v-16.232h46.091m-50.9 24.548h-19.589v-6.0118c-3e-5 -2.8055-0.2505-4.5923-0.7515-5.3606s-1.336-1.1522-2.5049-1.1523c-1.2692 7e-5 -2.2378 0.5178-2.9057 1.5531-0.6346 1.0354-0.9519 2.6052-0.9519 4.7093-2e-5 2.7054 0.3674 4.7427 1.1022 6.1121 0.7014 1.3694 2.6886 3.0227 5.9618 4.9598 9.3851 5.5777 15.297 10.153 17.735 13.727s3.6572 9.3351 3.6572 17.284c-5e-5 5.7781-0.6847 10.036-2.054 12.775-1.336 2.7387-3.9411 5.0433-7.8154 6.9136-3.8743 1.837-8.3832 2.7554-13.527 2.7554-5.6445 0-10.471-1.0688-14.478-3.2063-3.9745-2.1376-6.5796-4.8596-7.8154-8.1661s-1.8537-7.9991-1.8537-14.078v-5.3105h19.589v9.8695c-3e-5 3.0393 0.2672 4.9932 0.8016 5.8616 0.5678 0.8684 1.553 1.3026 2.9558 1.3026s2.4381-0.5511 3.1061-1.6533c0.7014-1.1022 1.052-2.7387 1.0521-4.9097-3e-5 -4.7761-0.6513-7.8989-1.9539-9.3685-1.336-1.4695-4.6258-3.9244-9.8695-7.3645-5.2437-3.4735-8.7172-5.9951-10.42-7.5649s-3.1228-3.7407-4.2584-6.5128c-1.1022-2.7721-1.6533-6.3124-1.6533-10.621 0-6.2122 0.7849-10.754 2.3546-13.627 1.6032-2.8723 4.1749-5.11 7.7152-6.7132 3.5403-1.6365 7.8154-2.4548 12.825-2.4548 5.4774 9e-5 10.137 0.8852 13.978 2.6552 3.8743 1.7702 6.4293 4.008 7.6651 6.7132 1.2691 2.672 1.9037 7.231 1.9038 13.677v3.2063"/>
 </g>
</svg>
